<svg width="180" height="180" viewBox="0 0 180 180" fill="none" xmlns="http://www.w3.org/2000/svg">
<rect width="180" height="180" fill="white"/>
<path d="M149 24C149 23.4477 149.448 23 150 23C150.552 23 151 23.4477 151 24V180H149V24Z" fill="#C4C4C4"/>
<rect x="147.832" y="69.8358" width="4.68651" height="1.17163" fill="#C4C4C4"/>
<rect x="147.832" y="24.1425" width="4.68651" height="1.17163" fill="#C4C4C4"/>
<rect x="82.5616" y="25.1791" width="68.4017" height="44.7334" transform="rotate(-0.133977 82.5616 25.1791)" fill="#3882C0"/>
<path d="M94.957 56.9441H69.2114C66.8957 59.4641 65.4654 62.8015 65.3973 66.5476V85.0054C65.3973 87.4573 66.1465 89.6368 67.3725 91.3396C69.3477 94.2002 72.685 96.0392 76.5673 96.0392H97.6133V66.7519C96.3192 66.4795 94.957 56.9441 94.957 56.9441Z" fill="#F5C5A2"/>
<path d="M100.474 56.7395L104.833 55.6497C101.768 51.0864 95.2295 48.9069 89.5764 50.3372C85.3536 51.3588 82.1524 54.2875 80.5178 58.0336" fill="#FAE8CE"/>
<path d="M98.635 54.9008C97.2047 49.2476 92.2327 47.5449 86.7839 47L90.0532 56.8759" fill="#FAE8CE"/>
<path d="M65.7379 56.7395L61.3789 55.6497C64.4439 51.0864 70.9824 48.9069 76.6355 50.3372C80.8584 51.3588 84.0595 54.2875 85.6942 58.0336" fill="#FAE8CE"/>
<path d="M74.8646 49.8604H91.8921C96.6598 49.8604 100.542 53.7426 100.542 58.5103V73.6307H74.8646C69.6202 73.6307 65.3292 69.3398 65.3292 64.0953V59.3957C65.3292 54.1513 69.6202 49.8604 74.8646 49.8604Z" fill="#FAE8CE"/>
<path d="M91.4834 79.0798C91.4834 75.6743 94.2078 72.9499 97.6133 72.9499C101.019 72.9499 103.743 75.6743 103.743 79.0798C103.743 82.4853 100.951 85.2097 97.6133 85.2097C94.2078 85.2097 91.4834 82.4172 91.4834 79.0798Z" fill="#F5C5A2"/>
<path d="M75.5457 85.4138H70.8462C70.1651 85.4138 69.6202 85.9587 69.6202 86.6398C69.6202 87.3209 70.1651 87.8658 70.8462 87.8658H75.5457C76.2268 87.8658 76.7717 87.3209 76.7717 86.6398C76.7717 85.9587 76.2268 85.4138 75.5457 85.4138Z" fill="#C5957A"/>
<path d="M105.173 134.044L110.827 148.552H97.2045V134.249L105.173 134.044Z" fill="#14142B"/>
<path d="M40.1965 99.513C43.1253 96.5842 47.893 96.5842 50.8217 99.513L52.3201 101.011L41.8312 111.568L40.1965 110.138C37.2678 107.209 37.2678 102.442 40.1965 99.513Z" fill="#F5C5A2"/>
<path d="M76.0224 98.423C73.0937 95.4943 68.3941 95.4943 65.4654 98.423L57.7008 106.256L56.1343 104.689L45.5773 115.246L52.3202 121.853C52.3883 121.921 52.3883 121.989 52.4564 121.989C55.3851 124.918 60.0847 124.918 63.0134 121.989L76.0224 108.98C78.9511 106.051 78.9511 101.352 76.0224 98.423Z" fill="#14142B"/>
<path d="M64.2394 132.274V171.437H63.354C61.0382 171.437 59.1993 173.276 59.1993 175.592C59.1993 177.908 61.0382 179.746 63.354 179.746H79.6323L79.5642 152.843H85.4216V171.505H85.3535H84.3319C82.0161 171.505 80.1771 173.344 80.1771 175.66C80.1771 177.976 82.0161 179.815 84.3319 179.815H100.61V132.342H64.2394V132.274Z" fill="#14142B"/>
<path d="M71.7996 96.039H81.5393L87.3287 88.1382H97.6133V98.3547H98.0219V126.825C97.2046 127.37 95.7743 128.936 94.6164 132.342H64.2394L65.9421 103.463C65.9421 99.3764 67.6449 96.039 71.7996 96.039Z" fill="white"/>
<path d="M52.3883 101.011L56.1343 104.689L45.5773 115.246L41.8312 111.568L52.3883 101.011Z" fill="white"/>
<path d="M118.863 122.466C118.863 121.104 118.523 119.81 117.774 118.584L107.012 99.7174C105.65 97.4016 103.198 96.1075 100.678 96.1075H92.0281C87.9415 96.1075 84.6041 99.3768 84.6041 103.463C84.6041 103.532 84.6041 103.532 84.6041 103.6V122.33C84.6041 127.847 89.1675 132.41 94.6844 132.41C94.6844 132.41 95.5698 134.59 97.4769 138.744L96.7277 140.311C99.8608 142.899 101.087 144.534 103.675 141.401L117.024 127.438C118.319 125.872 118.863 124.169 118.863 122.466Z" fill="#14142B"/>
<path d="M70.5735 143.784V102.918C70.5735 99.1038 73.6384 96.0389 77.4526 96.0389H71.1865C67.3723 96.0389 64.1711 99.1038 64.1711 102.918V143.784H70.5735Z" fill="#14142B"/>
<path d="M81.5392 96.0389H75.8861V132.341H81.5392V96.0389Z" fill="#3882C0"/>
</svg>
