<svg width="220" height="180" viewBox="0 0 220 180" fill="none" xmlns="http://www.w3.org/2000/svg"><g clip-path="url(#clip0)"><path fill="#fff" d="M0 0h220v180H0z"/><path d="M38.669 17.182h34.104c3.068 3.34 4.963 7.765 5.053 12.73V54.38c0 3.25-.993 6.14-2.617 8.396-2.616 3.792-7.037 6.23-12.18 6.23h-27.88V30.183c1.715-.361 3.52-13.001 3.52-13.001z" fill="#F5C5A2"/><path d="M31.36 16.911l-5.774-1.445c4.06-6.049 12.722-8.938 20.21-7.042 5.594 1.354 9.834 5.237 12 10.202" fill="#FAE8CE"/><path d="M33.796 14.473C35.691 6.98 42.277 4.723 49.496 4l-4.332 13.091M77.375 16.911l5.774-1.445c-4.06-6.049-12.722-8.938-20.21-7.042-5.594 1.354-9.835 5.237-12 10.202" fill="#FAE8CE"/><path d="M65.284 7.792H42.728c-6.315 0-11.458 5.146-11.458 11.466v20.044h34.014c6.947 0 12.631-5.688 12.631-12.64v-6.23c0-6.952-5.684-12.64-12.63-12.64z" fill="#FAE8CE"/><path d="M43.27 46.525a8.09 8.09 0 00-8.12-8.126 8.09 8.09 0 00-8.12 8.126c0 4.514 3.698 8.126 8.12 8.126 4.51 0 8.12-3.702 8.12-8.126z" fill="#F5C5A2"/><path d="M64.382 54.922h6.225c.903 0 1.624.722 1.624 1.625s-.721 1.625-1.624 1.625h-6.225a1.618 1.618 0 01-1.624-1.625c0-.903.722-1.625 1.624-1.625z" fill="#C5957A"/><path d="M25.135 119.386l-7.489 19.231h18.045v-18.96l-10.556-.271z" fill="#14142B"/><path d="M79.36 117.039v51.914h1.172a5.47 5.47 0 015.504 5.508 5.47 5.47 0 01-5.504 5.507H58.97l.09-35.663H51.3v24.739h1.444a5.47 5.47 0 015.504 5.507 5.47 5.47 0 01-5.504 5.508H31.18v-62.93h48.18v-.09z" fill="#14142B"/><path d="M69.344 69.006H56.444l-7.67-10.473H35.15v13.543h-.542v37.74c1.083.722 2.978 2.799 4.512 7.313h40.24l-2.256-38.282c0-5.417-2.256-9.84-7.76-9.84z" fill="#fff"/><path d="M7 104.037c0-1.805.45-3.521 1.443-5.146L22.7 73.881c1.804-3.069 5.052-4.784 8.39-4.784h11.459c5.413 0 9.834 4.333 9.834 9.75v25.01c0 7.313-6.045 13.362-13.353 13.362 0 0-1.173 2.889-3.699 8.397l.992 2.076c-4.15 3.431-5.774 5.598-9.202 1.445L9.436 110.628C7.722 108.552 7 106.295 7 104.037zM70.97 132.297V78.125a9.09 9.09 0 00-9.114-9.119h8.301c5.053 0 9.293 4.063 9.293 9.12v54.171h-8.48z" fill="#14142B"/><path d="M56.443 69.006h7.488v48.123h-7.488V69.006z" fill="#0084C6"/><path d="M188.043 168.124h-21.42c-3.06 0-5.556 2.534-5.556 5.631 0 3.138 2.496 5.632 5.556 5.632h21.42v-11.263zM160.343 168.124H138.923c-3.06 0-5.557 2.534-5.557 5.631 0 3.138 2.497 5.632 5.557 5.632h21.42v-11.263z" fill="#333"/><path d="M146.613 8.142c-2.658 3.34-3.02 8.046-1.289 12.39l.362-.362a8.398 8.398 0 007.489 4.626h11.113v6.436c0 7.04 2.577 13.114 9.623 13.114l3.181-2.695c7.046 0 12.763-5.752 12.763-12.752v-8.005c0-7.04-5.757-12.752-12.763-12.752h-30.479z" fill="#BFB09D"/><path d="M176.488 15.986h-32.09v.04c-3.342.363-5.919 3.219-5.919 6.638v6.155a6.625 6.625 0 002.658 5.31v21.32l12.079 9.05 19.527 4.627h9.704v-45.98l-5.959-7.16z" fill="#FFC49D"/><path d="M180.394 15.101c-6.08 0-11.033 5.954-11.355 11.948h-.04v13.596l15.461 8.207s1.731-33.75-4.066-33.75z" fill="#BFB09D"/><path d="M141.137 52.351l7.811-3.902-7.811-14.28V52.35z" fill="#FFC49D"/><path d="M180.152 34.008H133.89v2.816h46.262v-2.816z" fill="#333"/><path d="M133.89 34.008v2.896c0 3.983 3.261 7.241 7.247 7.241 3.986 0 7.247-3.258 7.247-7.24v-2.897H133.89zm11.676 2.896a4.414 4.414 0 01-4.429 4.425 4.414 4.414 0 01-4.429-4.425v-.08h8.858v.08z" fill="#333"/><path d="M146.814 34.008v2.896c0 3.983 3.261 7.241 7.247 7.241 3.986 0 7.248-3.258 7.248-7.24v-2.897h-14.495zm11.676 2.896a4.414 4.414 0 01-4.429 4.425 4.414 4.414 0 01-4.429-4.425v-.08h8.858v.08z" fill="#333"/><path d="M174.636 41.852a8.364 8.364 0 018.374-8.367c4.631 0 8.415 3.741 8.415 8.367 0 4.626-3.744 8.367-8.415 8.367-4.59.04-8.374-3.74-8.374-8.367z" fill="#FFC49D"/><path d="M168.999 40.645v7.845l-10.951 5.108c-1.571-3.057-4.751-5.149-8.415-5.149h-8.496v6.557c0 7.804 6.402 14.2 14.173 14.2h21.541V36.301l-7.852 4.344z" fill="#BFB09D"/><path d="M152.934 55.127h-6.16c-.886 0-1.61.724-1.61 1.61 0 .884.724 1.608 1.61 1.608h6.16c.886 0 1.611-.724 1.611-1.609s-.725-1.609-1.611-1.609z" fill="#9C9081"/><path d="M194.003 119.168l7.448 19.067h-17.917v-18.786l10.469-.281z" fill="#14142D"/><path d="M160.342 168.124l-.08-24.257h7.69v24.257h20.092v-51.249H140.05v51.249" fill="#14142D"/><path d="M149.995 69.126h12.884l7.69-10.419h13.529v13.436h.563v37.451c-1.046.724-2.899 2.816-4.469 7.281H140.05l2.255-37.974c0-5.39 2.295-9.775 7.69-9.775z" fill="#fff"/><path d="M212 103.922c.041-1.77-.443-3.54-1.409-5.15l-14.173-24.9c-1.811-3.057-5.032-4.746-8.374-4.786h-11.395c-5.355 0-9.784 4.344-9.784 9.694v24.82c0 7.241 6.04 13.235 13.327 13.235 0 0 1.168 2.816 3.705 8.367l-.967 2.051c4.188 3.46 5.758 5.592 9.18 1.408l17.595-18.423c1.611-1.811 2.336-4.104 2.295-6.316zM148.465 131.96V78.177c0-4.988 4.066-9.051 9.059-9.051h-8.254c-4.993 0-9.22 4.063-9.22 9.05v53.784h8.415z" fill="#14142D"/><path d="M162.879 69.126h-7.248v47.749h7.248V69.126z" fill="#C70000"/><path d="M148.384 69.126h-37.042v16.09h37.042v-16.09z" fill="#14142D"/><path d="M106.51 70.735a4.83 4.83 0 004.832-4.827 4.83 4.83 0 00-4.832-4.827 4.83 4.83 0 00-4.831 4.827 4.83 4.83 0 004.831 4.827z" fill="#FFC49D"/><path d="M111.342 65.908h-9.663V77.17h9.663V65.908zM101.679 77.171c0 4.425 3.623 8.046 8.052 8.046h1.611V77.17h-9.663z" fill="#FFC49D"/></g><defs><clipPath id="clip0"><path fill="#fff" d="M0 0h220v180H0z"/></clipPath></defs></svg>