<svg width="180" height="180" viewBox="0 0 180 180" fill="none" xmlns="http://www.w3.org/2000/svg">
<rect width="180" height="180" fill="white"/>
<path d="M31.8527 136.228H45.0889H45.9793C47.9973 136.228 49.6593 137.89 49.6593 139.967C49.6593 142.045 47.9973 143.707 45.9793 143.707H31.8527V141.451V136.228Z" fill="#BCAF9E"/>
<path d="M50.1341 136.228H63.4297H64.32C66.3381 136.228 68 137.89 68 139.967C68 142.045 66.3381 143.707 64.32 143.707H50.1935V141.451V136.228H50.1341Z" fill="#BCAF9E"/>
<path d="M59.2154 30.3386C60.9961 32.5348 61.2335 35.6806 60.0464 38.5296L59.8089 38.2922C58.9186 40.1322 57.0193 41.3787 54.8825 41.3787H47.5224V45.6522C47.5224 50.2819 45.8011 54.3181 41.1715 54.3181L39.094 52.5374C34.4643 52.5374 30.6656 48.7387 30.6656 44.109V38.8264C30.6656 34.1373 34.4643 30.3386 39.094 30.3386C39.6876 30.3386 51.8554 30.3386 51.8554 30.3386H59.2154Z" fill="#BCAF9E"/>
<path d="M39.4502 35.5615H60.6993V35.6209C62.8954 35.8583 64.6167 37.7577 64.6167 40.0132V44.1087C64.6167 45.5332 63.9045 46.839 62.8361 47.6106V61.7371L54.8231 67.732L41.9431 70.7591H35.5327V40.2506L39.4502 35.5615Z" fill="#F5C5A2"/>
<path d="M36.8979 34.9683C40.9341 34.9683 44.1986 38.8857 44.3767 42.8625V51.8845L34.1676 57.2858C34.1676 57.2858 33.0399 34.9683 36.8979 34.9683Z" fill="#BCAF9E"/>
<path d="M62.8361 59.6006L57.6722 57.0483L62.8361 47.5515V59.6006Z" fill="#F5C5A2"/>
<path d="M37.076 47.4331H67.6438V49.2731H37.076V47.4331Z" fill="#333333"/>
<path d="M67.6438 47.4331V49.3325C67.6438 52.0034 65.507 54.1402 62.8361 54.1402C60.1651 54.1402 58.0283 52.0034 58.0283 49.3325V47.4331H67.6438ZM59.9277 49.3918C59.9277 50.9944 61.2335 52.3002 62.8361 52.3002C64.4387 52.3002 65.7445 50.9944 65.7445 49.3918V49.3325L59.9277 49.3918Z" fill="#333333"/>
<path d="M59.0967 47.4331V49.3325C59.0967 52.0034 56.9599 54.1402 54.2889 54.1402C51.618 54.1402 49.4812 52.0034 49.4812 49.3325V47.4331H59.0967ZM51.3805 49.3918C51.3805 50.9944 52.6864 52.3002 54.2889 52.3002C55.8915 52.3002 57.1973 50.9944 57.1973 49.3918V49.3325L51.3805 49.3918Z" fill="#333333"/>
<path d="M40.6967 52.6563C40.6967 49.5698 38.2037 47.1362 35.1766 47.1362C32.0902 47.1362 29.5973 49.6291 29.5973 52.6563C29.5973 55.7427 32.0902 58.1763 35.1766 58.1763C38.2037 58.2356 40.6967 55.7427 40.6967 52.6563Z" fill="#F5C5A2"/>
<path d="M44.436 51.8845V57.0484L51.6773 60.4316C52.6863 58.4135 54.8231 57.0484 57.2567 57.0484H62.8361V60.4316V61.3813C62.8361 66.5452 58.6218 70.7594 53.458 70.7594H39.2127V48.9761L44.436 51.8845Z" fill="#BCAF9E"/>
<path d="M55.0606 61.4407H59.0968C59.6903 61.4407 60.1652 61.9155 60.1652 62.5091C60.1652 63.1026 59.6903 63.5775 59.0968 63.5775H55.0013C54.4077 63.5775 53.9329 63.1026 53.9329 62.5091C53.9922 61.9155 54.4671 61.4407 55.0606 61.4407Z" fill="#998F82"/>
<path d="M27.876 103.82L22.9495 116.462H34.8205V103.998L27.876 103.82Z" fill="#14142B"/>
<path d="M50.1341 136.228L50.1935 120.202H45.0889V136.228H31.8528V102.277H63.5484V136.228" fill="#14142B"/>
<path d="M57.022 70.6999H48.5342L43.489 63.8147H34.5264V72.718H34.1703V97.5284C34.8825 98.0032 36.129 99.3684 37.138 102.336H63.551L62.0671 77.1696C62.0671 73.6083 60.5833 70.6999 57.022 70.6999Z" fill="white"/>
<path d="M16.005 93.7295C16.005 92.5424 16.3017 91.4146 16.9546 90.3462L26.2734 73.8455C27.4605 71.8275 29.5973 70.6997 31.7934 70.6997H39.3315C42.8928 70.6997 45.8012 73.5488 45.8012 77.1101C45.8012 77.1694 45.8012 77.1694 45.8012 77.2288V93.5514C45.8012 98.3592 41.8244 102.336 37.0167 102.336C37.0167 102.336 36.245 104.235 34.5831 107.856L35.236 109.221C32.5057 111.477 31.4373 112.901 29.1818 110.171L17.5482 98.003C16.4204 96.6972 15.9456 95.2134 16.005 93.7295Z" fill="#14142B"/>
<path d="M58.0284 112.308V76.6946C58.0284 73.3707 55.3574 70.6997 52.0335 70.6997H57.4942C60.8181 70.6997 63.6078 73.3707 63.6078 76.6946V112.308H58.0284Z" fill="#14142B"/>
<path d="M48.4721 70.7H53.2799V102.336H48.4721V70.7Z" fill="#B62519"/>
<rect x="16.0001" y="143" width="65" height="37" fill="#B62519"/>
<rect x="95" y="143" width="65" height="37" fill="#57BACA"/>
<path d="M122.509 29.5952C118.39 29.5952 115.07 32.9155 115.07 36.9736V47.5493C115.07 48.3486 115.684 48.9635 116.484 48.9635C120.603 48.9635 123.924 45.6432 123.924 41.5236V31.0094C123.924 30.2101 123.309 29.5952 122.509 29.5952Z" fill="#827C75"/>
<path d="M141.57 67.779H124.477C119.312 67.779 115.07 63.5979 115.07 58.3716V41.8317C115.07 34.0844 121.403 27.8127 129.15 27.8127H129.826C136.282 27.8127 141.57 33.0391 141.57 39.5567V67.779Z" fill="#F5C5A2"/>
<path d="M136.036 52.7142C136.036 49.6399 138.496 47.1804 141.57 47.1804C144.645 47.1804 147.104 49.6399 147.104 52.7142C147.104 55.7885 144.583 58.248 141.57 58.248C138.496 58.248 136.036 55.7885 136.036 52.7142Z" fill="#F5C5A2"/>
<path d="M135.545 27.7505H133.024H123.555C121.956 27.7505 120.665 29.0417 120.665 30.6404C120.665 32.239 121.956 33.5302 123.555 33.5302H130.81C133.085 33.5302 134.93 31.6856 134.93 29.4106V41.2161C134.93 44.5363 137.635 47.2417 140.955 47.2417H141.57V33.7762C141.57 30.4559 138.865 27.7505 135.545 27.7505Z" fill="#827C75"/>
<path d="M124.354 58.1248H120.111C119.497 58.1248 119.005 58.6166 119.005 59.2315C119.005 59.8464 119.497 60.3383 120.111 60.3383H124.354C124.969 60.3383 125.461 59.8464 125.461 59.2315C125.461 58.6166 124.969 58.1248 124.354 58.1248Z" fill="#C5957A"/>
<path d="M148.641 102.026L153.745 115.123H141.447V102.272L148.641 102.026Z" fill="#827C75"/>
<path d="M89.983 70.8528C92.6269 68.2089 96.931 68.2089 99.5749 70.8528L100.928 72.2055L91.4587 81.7359L89.983 80.4447C87.3391 77.8008 87.3391 73.4967 89.983 70.8528Z" fill="#F5C5A2"/>
<path d="M122.325 69.9305C119.681 67.2865 115.438 67.2865 112.795 69.9305L105.785 76.9399L104.371 75.5257L94.8405 85.0561L100.928 91.0203C100.989 91.0818 100.989 91.1433 101.051 91.1433C103.695 93.7872 107.937 93.7872 110.581 91.1433L122.325 79.3994C124.969 76.7555 124.969 72.5129 122.325 69.9305Z" fill="#827C75"/>
<path d="M111.688 100.489V135.844H110.888C108.798 135.844 107.138 137.504 107.138 139.595C107.138 141.685 108.798 143.345 110.888 143.345H125.584L125.522 118.997H130.81V135.844H130.749H129.826C127.736 135.844 126.076 137.504 126.076 139.595C126.076 141.685 127.736 143.345 129.826 143.345H144.522V100.489H111.688Z" fill="#827C75"/>
<path d="M118.513 67.7167H127.305L132.532 60.5842H141.816V69.8072H142.185V95.5086C141.447 96.0005 140.156 97.4147 139.111 100.489H111.688L113.225 74.4802C113.225 70.7295 114.762 67.7167 118.513 67.7167Z" fill="white"/>
<path d="M100.989 72.2671L104.371 75.5874L94.8405 85.0563L91.4587 81.736L100.989 72.2671Z" fill="white"/>
<path d="M161 91.5736C161 90.3439 160.693 89.1757 160.016 88.0689L150.301 71.0371C149.072 68.9466 146.858 67.7783 144.583 67.7783H136.774C133.085 67.7783 130.072 70.7297 130.072 74.4189C130.072 74.4804 130.072 74.4804 130.072 74.5418V91.4507C130.072 96.4311 134.192 100.551 139.172 100.551C139.172 100.551 139.972 102.518 141.693 106.269L141.017 107.683C143.845 110.02 144.952 111.495 147.289 108.667L159.34 96.0622C160.508 94.7094 161 93.1108 161 91.5736Z" fill="#827C75"/>
<path d="M117.406 110.819V73.9269C117.406 70.4837 120.173 67.7168 123.616 67.7168H117.959C114.516 67.7168 111.626 70.4837 111.626 73.9269V110.819H117.406Z" fill="#827C75"/>
<path d="M137.389 82.4118C142.143 82.4118 145.997 78.5578 145.997 73.8037C145.997 69.0495 142.143 65.1956 137.389 65.1956C132.635 65.1956 128.781 69.0495 128.781 73.8037C128.781 78.5578 132.635 82.4118 137.389 82.4118Z" fill="#57BACA"/>
<path d="M137.47 81.2082L134.523 81.0525L133.867 93.4554L136.814 93.6111L137.47 81.2082Z" fill="#57BACA"/>
<path d="M137.955 93.6491L140.902 93.4934L140.247 81.0905L137.299 81.2462L137.955 93.6491Z" fill="#57BACA"/>
<path d="M142.738 73.8038L138.865 68.7004V70.914H133.147V76.6937H138.865V78.9072L142.738 73.8038Z" fill="white"/>
<path d="M127.305 67.7166H122.325V100.489H127.305V67.7166Z" fill="#57BACA"/>
<path d="M122.325 80.4443L127.305 74.4186V67.7166L122.325 73.8037V80.4443Z" fill="#14142B"/>
<path d="M122.325 93.7871L127.305 87.7614V81.0593L122.325 87.1465V93.7871Z" fill="#14142B"/>
<path d="M122.325 100.489H127.305V94.4631L122.325 100.489Z" fill="#14142B"/>
<path d="M144.522 135.598H130.749H129.826C127.736 135.598 126.014 137.32 126.014 139.472C126.014 141.624 127.736 143.345 129.826 143.345H144.46V141.009V135.598H144.522Z" fill="#14142B"/>
<path d="M125.522 135.598H111.811H110.888C108.798 135.598 107.076 137.32 107.076 139.472C107.076 141.624 108.798 143.345 110.888 143.345H125.522V141.009V135.598Z" fill="#14142B"/>
</svg>
