<svg width="668" height="300" viewBox="0 0 668 300" fill="none" xmlns="http://www.w3.org/2000/svg"><mask id="a" maskUnits="userSpaceOnUse" x="0" y="0" width="668" height="300"><path fill="#fff" d="M0 0h668v300H0z"/></mask><g mask="url(#a)"><path d="M612.836 42.466h-46.484c-4.181 4.554-6.763 10.584-6.886 17.352v33.349c0 4.43 1.353 8.368 3.566 11.444 3.566 5.169 9.592 8.491 16.601 8.491h37.999V60.187c-2.336-.492-4.796-17.72-4.796-17.72z" fill="#F5C5A2"/><path d="M622.798 42.097l7.87-1.969c-5.534-8.244-17.339-12.182-27.546-9.598-7.625 1.846-13.404 7.137-16.356 13.905" fill="#FAE8CE"/><path d="M619.477 38.775c-2.582-10.214-11.559-13.29-21.397-14.275l5.903 17.843M560.081 42.097l-7.871-1.969c5.534-8.244 17.34-12.182 27.547-9.598 7.624 1.846 13.404 7.137 16.355 13.905" fill="#FAE8CE"/><path d="M576.559 29.669h30.743c8.609 0 15.618 7.014 15.618 15.628v27.319h-46.361c-9.469 0-17.216-7.753-17.216-17.228v-8.491c0-9.476 7.747-17.228 17.216-17.228z" fill="#FAE8CE"/><path d="M606.565 82.46a11.025 11.025 0 0111.067-11.075A11.025 11.025 0 01628.7 82.46c0 6.154-5.042 11.076-11.068 11.076-6.148 0-11.067-5.046-11.067-11.076z" fill="#F5C5A2"/><path d="M577.789 93.905h-8.485c-1.23 0-2.213.985-2.213 2.215s.983 2.215 2.213 2.215h8.485c1.23 0 2.214-.984 2.214-2.215 0-1.23-.984-2.215-2.214-2.215z" fill="#C5957A"/><path d="M631.283 181.769l10.206 26.212h-24.594v-25.843l14.388-.369z" fill="#14142B"/><path d="M513.966 119.378c5.288-5.291 13.896-5.291 19.184 0l2.705 2.708-18.938 19.074-2.951-2.585c-5.288-5.291-5.288-13.905 0-19.197z" fill="#F5C5A2"/><path d="M578.65 117.409a13.429 13.429 0 00-19.061 0l-14.019 14.152-2.828-2.83-19.061 19.074 12.174 11.937c.123.123.123.246.246.246a13.429 13.429 0 0019.061 0l23.488-23.504a13.451 13.451 0 000-19.075zM557.375 178.57v70.758h-1.598a7.457 7.457 0 00-7.502 7.507 7.457 7.457 0 007.502 7.507h29.39l-.123-48.609h10.576v33.718h-1.967a7.456 7.456 0 00-7.502 7.507 7.456 7.456 0 007.502 7.507h29.39v-85.772h-65.668v-.123z" fill="#14142B"/><path d="M571.026 113.102h17.585l10.452-14.275h18.569v18.459h.738v51.439c-1.475.984-4.058 3.815-6.148 9.968h-54.847l3.075-52.177c0-7.384 3.074-13.414 10.576-13.414zM535.978 122.086l6.763 6.645-19.06 19.074-6.764-6.645 19.061-19.074z" fill="#fff"/><path d="M656 160.849c0-2.461-.615-4.799-1.968-7.014l-19.429-34.088c-2.46-4.184-6.887-6.522-11.437-6.522h-15.618c-7.378 0-13.404 5.907-13.404 13.291v34.087c0 9.968 8.239 18.213 18.2 18.213 0 0 1.599 3.938 5.042 11.444l-1.352 2.83c5.656 4.677 7.87 7.63 12.543 1.969l24.103-25.227c2.336-2.83 3.32-5.906 3.32-8.983zM568.812 199.367v-73.836a12.39 12.39 0 0112.42-12.429h-11.313c-6.887 0-12.667 5.538-12.667 12.429v73.836h11.56z" fill="#14142B"/><path d="M588.611 113.102h-10.207v65.591h10.207v-65.591z" fill="#0084C6"/></g><path fill="#0084C6" d="M526 264h128v36H526z"/><path d="M377.482 284.088h-38.119v15.88h38.119v-15.88z" fill="#E2E2E2"/><path d="M301.742 197.104l-3.701.845 13.373 58.596 3.701-.845-13.373-58.596z" fill="#CA863F"/><path d="M321.368 149.391l-61.679 14.077 9.382 41.109 61.68-14.077-9.383-41.109z" fill="#007ABC"/><path d="M300.327 166.664l-15.469 3.543a8.88 8.88 0 00-.98 6.263l2.53 11.072a6.662 6.662 0 002.057 3.543c1.581 1.424 3.859 2.056 6.168 1.55l12.622-2.878-4.017-17.526c-.791-.063-2.911-5.567-2.911-5.567z" fill="#FFC49D"/><path d="M303.586 165.778l2.467-1.265c-2.467-2.309-6.675-2.721-9.87-1.107a8.205 8.205 0 00-4.365 5.852" fill="#FFE9CC"/><path d="M302.257 164.924c-1.613-3.195-4.84-3.511-8.193-3.1l3.29 5.473M282.802 170.523l-2.783-.063c1.202-3.163 4.84-5.346 8.414-5.283a8.31 8.31 0 016.485 3.353" fill="#FFE9CC"/><path d="M287.326 165.177l10.218-2.341a5.282 5.282 0 016.358 4.018l2.056 9.047-15.405 3.511c-3.164.728-6.296-1.265-7.023-4.397l-.633-2.847c-.696-3.132 1.297-6.263 4.429-6.991z" fill="#FFE9CC"/><path d="M301.276 180.393c-.474-2.025.791-4.049 2.847-4.524 2.025-.474 4.05.823 4.524 2.847.475 2.025-.822 4.081-2.847 4.524a3.815 3.815 0 01-4.524-2.847z" fill="#FFC49D"/><path d="M292.577 186.372l-2.815.632c-.412.095-.665.507-.57.886.095.411.506.664.886.57l2.815-.633c.412-.095.665-.506.57-.886-.095-.379-.475-.664-.886-.569z" fill="#CF9475"/><path d="M306.559 268.872a7.255 7.255 0 01-10.281 0l-9.838-9.838a7.255 7.255 0 010-10.281 7.255 7.255 0 0110.281 0l9.838 9.838c2.847 2.816 2.847 7.434 0 10.281z" fill="#FFB68D"/><path d="M296.721 268.872a7.255 7.255 0 010-10.281l9.838-9.838a7.255 7.255 0 0110.281 0 7.255 7.255 0 010 10.281l-9.838 9.838c-2.815 2.816-7.434 2.816-10.281 0z" fill="#FFB68D"/><path d="M301.593 253.593l-4.872-4.871a7.255 7.255 0 00-10.281 0 7.255 7.255 0 000 10.281l4.872 4.871 10.281-10.281z" fill="#E2E2E2"/><path d="M56.906 265.741a6.644 6.644 0 01-9.396 0l-8.51-8.51a6.644 6.644 0 019.396-9.395l8.51 8.509a6.645 6.645 0 010 9.396z" fill="#FFB68D"/><path d="M44.379 262.609L39 257.231a6.644 6.644 0 019.395-9.395l5.378 5.378" fill="#003772"/><path d="M47.416 265.741a6.645 6.645 0 010-9.396l8.51-8.509a6.644 6.644 0 019.394 9.395l-8.51 8.51c-2.593 2.562-6.8 2.562-9.394 0z" fill="#FFB68D"/><path d="M53.625 194.843l-3.733.686 10.86 59.112 3.734-.685-10.86-59.113z" fill="#CA863F"/><path d="M75.254 148.01L13.03 159.442l7.62 41.472 62.224-11.432-7.62-41.472z" fill="#007ABC"/><path d="M53.52 164.323l-15.595 2.879a8.78 8.78 0 00-1.233 6.2l2.056 11.167a6.748 6.748 0 001.898 3.637c1.518 1.487 3.764 2.215 6.105 1.804l12.749-2.341-3.259-17.684c-.854-.031-2.72-5.662-2.72-5.662z" fill="#FFC49D"/><path d="M56.81 163.595l2.532-1.138c-2.373-2.405-6.549-3.006-9.807-1.519-2.436 1.107-4.05 3.227-4.618 5.631" fill="#FFE9CC"/><path d="M55.482 162.678c-1.486-3.258-4.681-3.733-8.066-3.448l3.068 5.599M35.838 167.455l-2.784-.19c1.36-3.1 5.061-5.125 8.636-4.903 2.657.158 4.935 1.581 6.327 3.638" fill="#FFE9CC"/><path d="M40.583 162.298l10.312-1.898c2.879-.537 5.663 1.392 6.2 4.271l1.677 9.142-15.532 2.847c-3.195.57-6.232-1.518-6.801-4.713L35.9 169.1a5.806 5.806 0 014.682-6.802z" fill="#FFE9CC"/><path d="M53.869 178.084a3.773 3.773 0 013.037-4.397 3.773 3.773 0 014.397 3.036 3.774 3.774 0 01-3.037 4.398 3.774 3.774 0 01-4.397-3.037z" fill="#FFC49D"/><path d="M44.917 183.683l-2.816.506c-.411.063-.664.474-.6.886.062.411.474.664.885.601l2.815-.506c.411-.064.665-.475.601-.886a.804.804 0 00-.885-.601z" fill="#CF9475"/><path d="M265.214 246.602v-35.429h34.132v23.883c0 6.453-5.282 11.578-11.704 11.578h-22.428v-.032z" fill="#FFB68D"/><path d="M277.741 218.575v7.75c0 5.062 3.353 8.699 7.402 8.699h1.36c1.076-2.435 3.543-3.985 6.39-3.985 2.847 0 5.378 1.55 6.453 3.985 0 6.96-4.966 11.515-11.356 11.515h-8.257c-5.314 0-9.142-4.27-9.142-9.617v-18.379h7.15v.032z" fill="#894100"/><path d="M272.996 203.422h13.191l-4.429-2.53a11.064 11.064 0 0112.116-.696c3.922 2.277 5.441 6.263 5.441 10.977h-21.606v8.889c-.411 6.516-5.916 11.704-12.559 11.704v-20.593a7.825 7.825 0 017.846-7.751z" fill="#894100"/><path d="M270.623 231.545c0-3.1-2.499-5.631-5.599-5.631a5.644 5.644 0 00-5.631 5.631c0 3.1 2.531 5.63 5.631 5.63 3.068 0 5.599-2.53 5.599-5.63zM181.543 215.791a12.9 12.9 0 00-4.555-9.205c-3.891 4.523-9.617 7.37-16.007 7.402.158.569-13.698 9.364-13.698 9.364v22.839h23.283c6.042 0 11.008-5.251 11.008-11.325l-.031-19.075z" fill="#FFB68D"/><path d="M147.315 215.791a12.93 12.93 0 013.195-7.877 12.843 12.843 0 019.68-4.365h8.509c3.164 0 6.042 1.139 8.288 3.037-3.891 4.523-9.616 7.37-16.006 7.402 0-.032 0-.063-.032-.063.158.601.253 1.233.285 1.898v4.84c0 6.485-5.283 11.767-11.768 11.767l-2.151-4.302v-12.337z" fill="#917F6E"/><path d="M153.104 231.165c0-3.1-2.499-5.631-5.599-5.631a5.644 5.644 0 00-5.631 5.631c0 3.1 2.531 5.631 5.631 5.631 3.068 0 5.599-2.531 5.599-5.631z" fill="#FFB68D"/><path d="M338.161 215.854h2.183v1.835l7.782 1.487v2.246h18.252c5.726 7.244 4.904 11.894 4.904 17.62h-1.677c0 5.726-9.269 10.439-14.994 10.439h-6.928c-3.891 0-7.276-2.183-9.079-5.378-1.961 3.037-5.346 5.062-9.205 5.062h-2.183V226.8c0-6.011 4.935-10.946 10.945-10.946z" fill="#E2E2E2"/><path d="M348.094 217.657v31.824h17.873c7.244 0 11.452-5.188 11.452-11.926v-20.087l-29.325.189z" fill="#FFB68D"/><path d="M337.307 217.12c0 5.725 2.752 10.376 8.478 10.534h21.321c5.726-.158 10.376-4.809 10.376-10.534 0-5.726-4.65-10.724-10.376-10.724h-19.455c-5.725 0-10.344 4.998-10.344 10.724z" fill="#E2E2E2"/><path d="M353.63 233.19c0-4.303-4.935-7.434-9.458-4.05-3.417 4.524-.348 9.554 3.986 9.554 3.037 0 5.472-2.468 5.472-5.504zM21.444 213.893v32.013h17.873c7.244 0 11.451-5.188 11.451-11.926v-20.087H21.444z" fill="#FFB68D"/><path d="M26.822 229.615c0-3.037-2.31-5.473-5.346-5.473-3.037 0-5.441 2.468-5.441 5.473 0 3.037 2.404 5.504 5.44 5.504 3.037 0 5.347-2.467 5.347-5.504z" fill="#FFB68D"/><path d="M10.626 213.545c0-5.726 4.618-10.724 10.344-10.724h19.454c5.726 0 10.376 4.967 10.376 10.724 0 5.726-4.65 10.376-10.376 10.534H26.822v5.789c0 4.018 2.562 7.244 6.548 7.244a7.17 7.17 0 005.093-2.088c-1.487 6.201-7.086 10.882-13.729 10.882-.98 0-2.847 0-3.321-.031l-.412.031c-5.725 0-10.376-4.713-10.376-10.439v-21.922zM260.848 246.571h4.239v-8.826h10.439l6.485 8.826h9.269c4.46.095 8.066 3.701 8.066 8.193V299.968h-38.403v-10.439h-7.465V253.72c0-4.081 3.321-7.086 7.37-7.149z" fill="#E2E2E2"/><path d="M281.943 284.106h6.074v-37.549h-6.074v37.549z" fill="#003772"/><path d="M143.076 246.033h4.239v-8.826h10.439l6.485 8.826h9.268c4.461.095 8.067 3.701 8.067 8.193V299.968H142.76v-35.967l-7.023-10.851c0-4.049 3.29-7.054 7.339-7.117z" fill="#E2E2E2"/><path d="M164.186 294.541h6.073v-48.558h-6.073v48.558z" fill="#007ABC"/><path d="M338.984 249.481h30.4c4.46.095 8.066 3.733 8.066 8.225V300h-7.434a8.035 8.035 0 01-7.212-7.877c-.063 4.113-3.227 7.497-7.244 7.877h-16.608V263.621l-7.371-6.959c.064-4.113 3.353-7.118 7.403-7.181z" fill="#4C3F3F"/><path d="M344.678 240.782h10.502l6.422 8.825h-16.924v-8.825z" fill="#4C3F3F"/><path d="M363.658 266.816a2.467 2.467 0 100-4.936 2.467 2.467 0 000 4.936zM363.658 282a2.466 2.466 0 100-4.934 2.467 2.467 0 100 4.934z" fill="#fff"/><path d="M194.829 253.056c0-4.081 3.29-7.086 7.37-7.118h30.4c4.461.095 8.067 3.701 8.067 8.193v45.837h-37.961l-.506-38.403" fill="#000505"/><path d="M19.736 245.906H43.24c4.176 0 7.529 3.417 7.592 7.592V300H14.706l-.158-38.909h5.188v-15.185z" fill="#4C3F3F"/><path d="M19.926 257.041h24.295l-1.234-11.135H19.926v11.135z" fill="#FFB68D"/><path d="M43.525 253.498c-.032-4.175-3.385-7.592-7.592-7.592h7.276c4.175 0 7.528 3.417 7.592 7.592v39.036a7.276 7.276 0 01-7.276-7.275v-31.761zM8 253.467c0-3.67 3.037-7.561 6.706-7.561h8.478c4.808 0 8.7 3.891 8.7 8.7v29.134a9.046 9.046 0 01-9.048 9.048H12.112v-15.817H8v-23.504z" fill="#BC2C22"/><path d="M21.318 289.909a6.642 6.642 0 01-6.643 6.643c-3.67 0-6.706-2.974-6.706-6.643v-12.938h13.317v12.938h.032z" fill="#FFB68D"/><path d="M138.331 199.711l-3.473 1.534 24.276 54.983 3.473-1.533-24.276-54.984z" fill="#CA863F"/><path d="M148.497 149.138L90.62 174.692l17.031 38.575 57.877-25.553-17.031-38.576z" fill="#007ABC"/><path d="M131.118 170.08l-14.488 6.39a8.766 8.766 0 00.221 6.327l4.587 10.376a6.824 6.824 0 002.689 3.1c1.835 1.107 4.176 1.297 6.359.348l11.862-5.22-7.276-16.449c-.822.158-3.954-4.872-3.954-4.872z" fill="#FFC49D"/><path d="M134.155 168.593l2.183-1.708c-2.847-1.803-7.086-1.392-9.901.791-2.12 1.645-3.195 4.081-3.195 6.548" fill="#FFE9CC"/><path d="M132.668 168.024c-2.182-2.815-5.409-2.531-8.636-1.487l4.303 4.745M114.637 177.198l-2.72.474c.601-3.321 3.733-6.168 7.244-6.769 2.625-.443 5.188.379 6.991 2.056" fill="#FFE9CC"/><path d="M118.085 171.093l9.585-4.239c2.689-1.202 5.821.031 7.023 2.72l3.764 8.51-14.456 6.39c-2.974 1.297-6.422-.032-7.719-3.006l-1.17-2.657c-1.329-2.942 0-6.39 2.973-7.718z" fill="#FFE9CC"/><path d="M134.662 183.366c-.855-1.898 0-4.144 1.929-4.966 1.898-.854 4.144.032 4.998 1.93.854 1.898-.031 4.144-1.929 4.998a3.806 3.806 0 01-4.998-1.962z" fill="#FFC49D"/><path d="M127.259 190.895l-2.626 1.171c-.379.158-.537.601-.379.98.158.38.601.538.98.38l2.626-1.17c.38-.159.538-.601.38-.981-.159-.38-.601-.538-.981-.38z" fill="#CF9475"/><path d="M146.746 266.595l-9.079-9.079a6.644 6.644 0 019.395-9.395l9.395 9.395" fill="#E2E2E2"/><path d="M146.081 265.994a6.644 6.644 0 010-9.395l8.51-8.51a6.644 6.644 0 019.395 9.395l-8.51 8.51c-2.594 2.594-6.832 2.594-9.395 0z" fill="#FFB68D"/><path d="M342.463 269.885l-9.079-9.079a6.644 6.644 0 019.395-9.395l9.396 9.395" fill="#4C3F3F"/><path d="M357.205 263.273l-6.011 6.011a6.644 6.644 0 01-9.395-9.396l6.01-6.01" fill="#4C3F3F"/><path d="M268.409 289.529c0 4.144-3.354 7.276-7.466 7.276-4.144 0-7.465-3.132-7.465-7.276h14.931z" fill="#FFB68D"/><path d="M203.781 277.097c-1.36 0-2.72-.379-3.922-1.107-2.057-1.234-3.385-3.385-3.638-5.757l-1.55-15.88a7.569 7.569 0 016.801-8.288 7.57 7.57 0 018.288 6.801l.569 5.757 2.816-1.139a7.594 7.594 0 019.901 4.176 7.593 7.593 0 01-4.176 9.901l-12.21 4.967a7.548 7.548 0 01-2.879.569z" fill="#000505"/><path d="M223.109 269.031c3.638-2.088 4.904-6.738 2.816-10.376-2.088-3.638-6.738-4.904-10.376-2.816l-2.12 1.234 7.561 13.191 2.119-1.233zM204.319 245.938v-36.569h34.164v24.485c0 6.453-5.283 12.052-11.736 12.052h-22.428v.032z" fill="#894100"/><path d="M212.132 201.809h26.351v7.56h-.031c-2.025 3.891-6.074 6.549-10.787 6.549-4.682 0-8.731-2.658-10.788-6.549v9.174c0 6.896-5.662 12.527-12.558 12.527v-21.701c0-4.302 3.511-7.56 7.813-7.56z" fill="#000505"/><path d="M209.95 230.88c0-3.1-2.499-5.63-5.599-5.63a5.642 5.642 0 00-5.631 5.63c0 3.1 2.53 5.631 5.631 5.631 3.1 0 5.599-2.531 5.599-5.631z" fill="#894100"/><path d="M360.525 200.752l-3.795-.083-1.302 60.093 3.795.082 1.302-60.092z" fill="#CA863F"/><path d="M391.168 159.256l-63.255-1.371-.914 42.16 63.255 1.371.914-42.16z" fill="#007ABC"/><path d="M366.568 170.871l-15.848-.348c-1.455 1.519-2.404 3.575-2.467 5.821L348 187.7c-.032 1.487.379 2.847 1.138 3.955 1.202 1.771 3.227 2.941 5.599 3.005l12.939.284.379-17.999c-.791-.222-1.487-6.074-1.487-6.074z" fill="#FFC49D"/><path d="M369.921 170.808l2.721-.601c-1.835-2.847-5.821-4.271-9.3-3.48a8.275 8.275 0 00-5.663 4.587" fill="#FFE9CC"/><path d="M368.814 169.669c-.79-3.48-3.827-4.587-7.18-4.998l1.866 6.105M348.6 170.333l-2.688-.727c1.961-2.752 5.978-4.018 9.427-3.069a8.239 8.239 0 015.472 4.84" fill="#FFE9CC"/><path d="M354.294 166.253l10.471.221a5.334 5.334 0 015.22 5.441l-.19 9.3-15.785-.348c-3.227-.063-5.789-2.752-5.726-5.978l.063-2.911c.032-3.226 2.721-5.789 5.947-5.725z" fill="#FFE9CC"/><path d="M364.133 184.41c.032-2.087 1.771-3.732 3.859-3.701 2.088.032 3.733 1.772 3.701 3.86-.031 2.087-1.771 3.732-3.859 3.701-2.119-.064-3.764-1.772-3.701-3.86z" fill="#FFC49D"/><path d="M354.231 188.08l-2.879-.063c-.411 0-.759.316-.759.727s.317.759.728.759l2.879.064c.411 0 .759-.317.759-.728 0-.379-.317-.727-.728-.759z" fill="#CF9475"/><path d="M347.809 253.878l2.468-2.467a6.644 6.644 0 019.395 9.395l-2.468 2.467" fill="#FFB68D"/><path d="M93.221 217.974v32.235h17.873c7.244 0 11.452-5.188 11.452-11.926v-20.309H93.221z" fill="#894100"/><path d="M76.487 230.627c-2.278-1.423-3.796-3.922-3.796-6.801 0-4.017 2.973-7.371 6.864-7.908v-5.916c0-4.587 3.765-8.351 8.352-8.351 3.574 0 6.643 2.277 7.813 5.472h16.513c5.726 0 10.376 4.967 10.376 10.724 0 5.726-4.65 10.376-10.376 10.534H93.126l-.474 2.816c0 2.499 2.499 2.847.727 2.657v5.726a10.694 10.694 0 01-10.724 10.534c-5.915 0-10.723-4.809-10.723-10.724 0-3.606 1.803-6.801 4.555-8.763z" fill="#000505"/><path d="M98.757 233.917a5.454 5.454 0 00-5.473-5.472c-3.037 0-5.44 2.467-5.44 5.472 0 3.037 2.403 5.504 5.44 5.504 3.037 0 5.473-2.467 5.473-5.504z" fill="#894100"/><path d="M122.641 288.359H84.142V300h38.499v-11.641zM76.803 258.338c0-3.131 2.025-6.2 4.809-7.497v12.084h41.06V275.737h-42.99l-2.879-17.399z" fill="#E2E2E2"/><path d="M81.58 250.841a6.984 6.984 0 012.689-.632h30.305c4.46.094 8.067 3.732 8.067 8.224v4.461h-41.06v-12.053zM122.641 275.737v12.622H84.142v-12.622H81.58h41.061z" fill="#D6842B"/><path d="M85.882 281.241c-1.36 0-2.72-.379-3.922-1.107-2.057-1.234-3.385-3.385-3.638-5.757l-1.55-15.88a7.57 7.57 0 016.8-8.288 7.569 7.569 0 018.289 6.801l.57 5.757 2.815-1.139a7.595 7.595 0 019.901 4.176 7.593 7.593 0 01-4.176 9.901l-12.242 4.998c-.917.38-1.898.538-2.847.538z" fill="#D6842B"/><path d="M89.931 263.59l5.347-1.93a7.594 7.594 0 019.901 4.176 7.593 7.593 0 01-4.176 9.901l-5.536 2.278" fill="#E2E2E2"/><path d="M77.626 267.481l-.886-8.953a7.57 7.57 0 016.801-8.288 7.57 7.57 0 018.288 6.801l.57 5.758" fill="#E2E2E2"/><path d="M104.325 274.25c3.859-1.676 5.599-6.137 3.922-9.996-1.676-3.859-6.137-5.599-9.996-3.923l-2.246.981 6.074 13.919 2.246-.981z" fill="#894100"/></svg>