<svg width="915" height="256" fill="none" xmlns="http://www.w3.org/2000/svg"><mask id="a" maskUnits="userSpaceOnUse" x="0" y="0" width="915" height="256"><path fill="#C4C4C4" d="M0 0h915v255H0z"/></mask><g mask="url(#a)"><path fill="#C70000" d="M577.75-322l55.861 55.861-597.75 597.75-55.86-55.861z"/><path fill="#007ABC" d="M688.75-322l55.861 55.861-597.75 597.75-55.86-55.861z"/><path fill="#FFE500" d="M800.75-322l55.861 55.861-597.75 597.75-55.86-55.861z"/><path fill="#FF7F0F" d="M911.75-322l55.861 55.861-597.75 597.75-55.86-55.861z"/></g><path d="M143.076 74.6h37.773c3.398 3.7 5.497 8.6 5.597 14.1v27.1c0 3.6-1.1 6.8-2.898 9.3-2.898 4.2-7.795 6.9-13.491 6.9h-30.879V89c1.899-.4 3.898-14.4 3.898-14.4z" fill="#F5C5A2"/><path d="M134.981 74.3l-6.395-1.6c4.497-6.7 14.09-9.9 22.384-7.8 6.196 1.5 10.893 5.8 13.291 11.3" fill="#FAE8CE"/><path d="M137.679 71.6c2.099-8.3 9.394-10.8 17.388-11.6l-4.796 14.5M185.946 74.3l6.395-1.6c-4.496-6.7-14.09-9.9-22.384-7.8-6.196 1.5-10.892 5.8-13.291 11.3" fill="#FAE8CE"/><path d="M172.555 64.2h-24.983c-6.995 0-12.691 5.7-12.691 12.7v22.2h37.674c7.695 0 13.99-6.3 13.99-14v-6.9c0-7.7-6.295-14-13.99-14z" fill="#FAE8CE"/><path d="M148.172 107.1c0-5-3.997-9-8.994-9-4.996 0-8.993 4-8.993 9s4.097 9 8.993 9c4.997 0 8.994-4.1 8.994-9z" fill="#F5C5A2"/><path d="M171.556 116.4h6.895c.999 0 1.799.8 1.799 1.8s-.8 1.8-1.799 1.8h-6.895c-1 0-1.799-.8-1.799-1.8s.799-1.8 1.799-1.8z" fill="#C5957A"/><path d="M128.086 187.8l-8.294 21.3h19.986v-21l-11.692-.3z" fill="#14142B"/><path d="M223.42 137.1c-4.297-4.3-11.292-4.3-15.589 0l-2.199 2.2 15.389 15.5 2.399-2.1c4.297-4.3 4.297-11.3 0-15.6z" fill="#F5C5A2"/><path d="M170.856 135.5a10.913 10.913 0 0115.49 0l11.392 11.5 2.298-2.3 15.489 15.5-9.893 9.7c-.1.1-.1.2-.2.2a10.911 10.911 0 01-15.489 0L170.856 151a10.93 10.93 0 010-15.5zM188.144 185.2v57.5h1.299c3.398 0 6.096 2.7 6.096 6.1 0 3.4-2.698 6.1-6.096 6.1H165.56l.1-39.5h-8.594v27.4H158.665a6.06 6.06 0 016.096 6.1c0 3.4-2.699 6.1-6.096 6.1h-23.884v-69.7h53.363v-.1z" fill="#14142B"/><path d="M177.052 132h-14.29l-8.494-11.6h-15.09v15h-.599v41.8c1.199.8 3.297 3.1 4.996 8.1h44.569l-2.498-42.4c0-6-2.498-10.9-8.594-10.9zM205.532 139.3l-5.496 5.4 15.489 15.5 5.496-5.4-15.489-15.5z" fill="#fff"/><path d="M108 170.8c0-2 .5-3.9 1.599-5.7l15.789-27.7c1.999-3.4 5.596-5.3 9.294-5.3h12.691c5.996 0 10.892 4.8 10.892 10.8v27.7c0 8.1-6.695 14.8-14.79 14.8 0 0-1.299 3.2-4.097 9.3l1.099 2.3c-4.596 3.8-6.395 6.2-10.192 1.6l-19.587-20.5c-1.898-2.3-2.698-4.8-2.698-7.3zM178.851 202.1v-60c0-5.6-4.497-10.1-10.093-10.1h9.193c5.597 0 10.293 4.5 10.293 10.1v60h-9.393z" fill="#14142B"/><path d="M162.762 132h8.294v53.3h-8.294V132z" fill="#0084C6"/><path d="M39.142 242.4h23.784c3.397 0 6.195 2.8 6.195 6.3s-2.798 6.3-6.195 6.3H39.142V242.4zM69.92 242.4h23.885c3.397 0 6.195 2.8 6.195 6.3s-2.798 6.3-6.196 6.3H70.021V242.4h-.1zM85.21 64c2.998 3.7 3.398 9 1.4 13.8l-.4-.4a9.24 9.24 0 01-8.295 5.2H65.524v7.2c0 7.8-2.898 14.6-10.693 14.6l-3.497-3c-7.795 0-14.19-6.4-14.19-14.2v-8.9c0-7.9 6.395-14.3 14.19-14.3H85.21z" fill="#BCAF9E"/><path d="M51.933 72.8H87.71v.1c3.697.4 6.595 3.6 6.595 7.4v6.9c0 2.4-1.2 4.6-2.998 5.9v23.8L77.816 127l-21.686 5.1H45.338V80.7l6.595-7.9z" fill="#F5C5A2"/><path d="M47.636 71.8c6.796 0 12.292 6.6 12.591 13.3v15.2l-17.188 9.1s-1.898-37.6 4.597-37.6z" fill="#BCAF9E"/><path d="M91.306 113.3l-8.694-4.3 8.694-16v20.3z" fill="#F5C5A2"/><path d="M47.936 92.8H99.4v3.1H47.936v-3.1z" fill="#333"/><path d="M99.4 92.8V96c0 4.5-3.597 8.1-8.094 8.1a8.063 8.063 0 01-8.094-8.1v-3.2H99.4zm-12.99 3.3c0 2.7 2.198 4.9 4.896 4.9s4.897-2.2 4.897-4.9V96l-9.794.1z" fill="#333"/><path d="M85.01 92.8V96c0 4.5-3.597 8.1-8.094 8.1a8.063 8.063 0 01-8.094-8.1v-3.2H85.01zm-12.99 3.3c0 2.7 2.198 4.9 4.896 4.9s4.897-2.2 4.897-4.9V96l-9.794.1z" fill="#333"/><path d="M54.032 101.6c0-5.2-4.197-9.3-9.294-9.3-5.196 0-9.393 4.2-9.393 9.3 0 5.2 4.197 9.3 9.393 9.3 5.097.1 9.294-4.1 9.294-9.3z" fill="#F5C5A2"/><path d="M60.328 100.3v8.7l12.191 5.7c1.699-3.4 5.296-5.7 9.394-5.7h9.393V116.3c0 8.7-7.095 15.8-15.789 15.8H51.534V95.4l8.794 4.9z" fill="#BCAF9E"/><path d="M78.215 116.4h6.795c1 0 1.8.8 1.8 1.8s-.8 1.8-1.8 1.8h-6.895c-1 0-1.799-.8-1.799-1.8.1-1 .9-1.8 1.899-1.8z" fill="#998F82"/><path d="M32.447 187.8l-8.294 21.3h19.986v-21l-11.692-.3z" fill="#14142B"/><path d="M69.92 242.4l.1-27h-8.593v27H39.142v-57.2h53.363v57.2" fill="#14142B"/><path d="M81.513 132h-14.29l-8.494-11.6h-15.09v15h-.6v41.8c1.2.8 3.298 3.1 4.997 8.1h44.47l-2.499-42.4c0-6-2.498-10.9-8.494-10.9z" fill="#fff"/><path d="M12.46 170.8c0-2 .5-3.9 1.6-5.7l15.689-27.8c1.998-3.4 5.596-5.3 9.293-5.3h12.692c5.995 0 10.892 4.8 10.892 10.8v27.7c0 8.1-6.695 14.8-14.79 14.8 0 0-1.299 3.2-4.097 9.3l1.1 2.3c-4.597 3.8-6.396 6.2-10.194 1.6L15.06 178c-1.899-2.2-2.698-4.7-2.598-7.2zM83.212 202.1v-60c0-5.6-4.497-10.1-10.093-10.1h9.193c5.597 0 10.293 4.5 10.293 10.1v60h-9.393z" fill="#14142B"/><path d="M67.123 132h8.094v53.3h-8.094V132z" fill="#C70000"/><path d="M312 126.475v38.298c0 9.044-7.16 17.194-16.205 17.194h-15.78v-55.492H312z" fill="#FFDF51"/><path d="M278.413 218.851h14.368v29.63h-14.368v-29.63z" fill="#FFC49E"/><path d="M303.709 255.688l-25.343-20.02v20.02h6.454v-4.193l5.888 4.193h13.001z" fill="#14142D"/><path d="M253.07 218.851h14.368v29.63H253.07v-29.63z" fill="#FFC49E"/><path d="M278.366 255.688l-25.296-20.02v20.02h6.406v-4.193l5.936 4.193h12.954z" fill="#14142D"/><path d="M251.186 167.882l1.554 15.451v44.044h50.969v-59.495h-52.523z" fill="#FFDF51"/><path d="M290.048 126.475c7.867 0 13.614 5.747 13.614 13.944v39.334h-51.817v-53.23l38.203-.048z" fill="#14142D"/><path d="M276.294 139.618v-13.143h14.179c7.631 0 12.907 5.371 13.283 13.143h-27.462z" fill="#14142D"/><path d="M252.269 198.077c-5.652 0-10.269-4.616-10.269-10.269v-.754h20.538v.754c-.047 5.653-4.663 10.269-10.269 10.269z" fill="#FFC49D"/><path d="M252.269 126.475H282.7v35.801c0 9.045-7.349 17.712-16.393 17.712h-3.769v7.066H242v-50.309c0-5.653 4.617-10.27 10.269-10.27z" fill="#FFDF51"/><path d="M280.863 64.154h16.299c6.83.236 12.341 5.841 12.341 12.719V95.48c0 7.018-5.747 12.718-12.718 12.718h-.801c-6.972 0-14.603-5.7-14.603-12.718l-.518-31.326z" fill="#D6842B"/><path d="M256.367 93.83h8.15v32.645l-11.73-7.348 3.58-25.296z" fill="#14142D"/><path d="M280.957 81.489v.094h22.799v29.206c0 8.997-7.254 15.686-16.157 15.686h-23.035V81.489h16.393z" fill="#FFC49D"/><path d="M272.76 103.912c0-4.523-3.674-14.415-8.196-14.415s-8.244 9.892-8.244 14.415c0 4.522 3.675 8.196 8.244 8.196 4.522.047 8.196-3.627 8.196-8.196z" fill="#FFC49D"/><path d="M250.668 66.51c2.072-1.508 4.616-2.356 7.395-2.356h32.409c7.019 0 15.64 5.7 15.64 12.719V93.83h-20.633c-5.982 0-10.269-4.805-10.834-10.788-8.856 5.795-15.074 14.839-15.074 26.239 0 6.312 1.79 12.2 4.852 17.193-1.225.048-19.126.99-19.126-14.65V76.449c0-4.146 2.167-7.82 5.371-9.94z" fill="#D6842B"/><path d="M287.316 115.123h7.208c1.413 0 2.59-1.178 2.59-2.591 0-1.413-1.177-2.591-2.59-2.591h-7.208c-1.413 0-2.591 1.178-2.591 2.591a2.584 2.584 0 002.591 2.591z" fill="#E2352D"/><path d="M395.696 218.559h14.195v29.274h-14.195v-29.274z" fill="#FFC49D"/><path d="M420.688 255l-24.992-19.826V255h6.33v-4.142L407.89 255h12.798z" fill="#14142D"/><path d="M370.239 218.559h14.66v29.274h-14.66v-29.274z" fill="#FFC49D"/><path d="M395.696 255l-25.457-19.826V255h6.795v-4.142l5.864 4.142h12.798zM370.239 179.466V229.031h50.682v-49.565h-50.682z" fill="#14142D"/><path d="M369.727 127.341l37.744-.046c7.632 0 13.264 5.445 13.45 13.31v38.861h-40.257v7.725h-20.292v-49.704c0-5.306 4.142-9.727 9.355-10.146z" fill="#FF7F0F"/><path d="M370.239 198.082c-5.585 0-9.867-4.561-9.867-10.146v-.744h20.292v.744c0 5.585-4.84 10.146-10.425 10.146zM407.471 127.341c-2.7 4.654-7.679 7.772-13.45 7.772-5.725 0-10.751-3.164-13.45-7.772h26.9z" fill="#FFC49D"/><path d="M373.59 71.4l6.05 55.941h20.245c10.704 0 16.847-7.633 16.847-17.499v-30.53L373.59 71.4z" fill="#FFC49D"/><path d="M400.536 115.939h7.121a2.583 2.583 0 002.56-2.56 2.583 2.583 0 00-2.56-2.56h-7.121c-1.396 0-2.559 1.164-2.559 2.56a2.553 2.553 0 002.559 2.56z" fill="#E2352D"/><path d="M360 79.777C360 71.307 366.841 64 375.265 64h30.484c8.284 0 14.939 7.074 15.125 15.312V92.11h-23.177c-9.447-1.303-16.801-9.261-17.126-19.034v54.405c-10.286 0-20.618-5.166-20.618-10.286.047-.046.047-36.952.047-37.418z" fill="#662E00"/></svg>