<svg width="667" height="301" viewBox="0 0 667 301" fill="none" xmlns="http://www.w3.org/2000/svg"><mask id="a" maskUnits="userSpaceOnUse" x="0" y="0" width="667" height="301"><path fill="#fff" d="M0 .451h667v299.551H0z"/></mask><g mask="url(#a)"><path d="M611.919 42.853h-46.414c-4.175 4.547-6.754 10.568-6.877 17.326v33.299c0 4.423 1.351 8.355 3.561 11.427 3.561 5.161 9.578 8.478 16.577 8.478h37.942V60.547c-2.333-.491-4.789-17.694-4.789-17.694z" fill="#F5C5A2"/><path d="M621.865 42.485l7.859-1.966c-5.526-8.233-17.314-12.165-27.505-9.584-7.613 1.843-13.384 7.126-16.331 13.884" fill="#FAE8CE"/><path d="M618.55 39.167c-2.579-10.198-11.542-13.27-21.365-14.253l5.893 17.817M559.242 42.485l-7.858-1.966c5.525-8.233 17.313-12.165 27.505-9.584 7.613 1.843 13.384 7.126 16.331 13.884" fill="#FAE8CE"/><path d="M575.696 30.075h30.697c8.595 0 15.594 7.003 15.594 15.605v27.278h-46.291c-9.455 0-17.191-7.741-17.191-17.203v-8.478c0-9.461 7.736-17.202 17.191-17.202z" fill="#FAE8CE"/><path d="M605.657 82.788a11.009 11.009 0 0111.051-11.059 11.01 11.01 0 0111.051 11.059c0 6.143-5.035 11.058-11.051 11.058-6.14 0-11.051-5.037-11.051-11.058z" fill="#F5C5A2"/><path d="M576.924 94.215h-8.472c-1.228 0-2.21.983-2.21 2.212s.982 2.212 2.21 2.212h8.472a2.202 2.202 0 002.211-2.212 2.202 2.202 0 00-2.211-2.212z" fill="#C5957A"/><path d="M630.338 181.948l10.191 26.172h-24.558v-25.804l14.367-.368z" fill="#14142B"/><path d="M513.197 119.65c5.279-5.283 13.875-5.283 19.155 0l2.701 2.703-18.91 19.046-2.946-2.58c-5.28-5.284-5.28-13.885 0-19.169z" fill="#F5C5A2"/><path d="M577.784 117.684a13.41 13.41 0 00-19.033 0l-13.998 14.131-2.824-2.826-19.032 19.045 12.156 11.919c.123.123.123.246.246.246a13.408 13.408 0 0019.032 0l23.453-23.469a13.43 13.43 0 000-19.046zM556.541 178.753v70.653h-1.596a7.444 7.444 0 00-7.49 7.495 7.444 7.444 0 007.49 7.495h29.346l-.122-48.535h10.559v33.668h-1.964a7.444 7.444 0 00-7.49 7.495 7.444 7.444 0 007.49 7.495h29.346v-85.643h-65.569v-.123z" fill="#14142B"/><path d="M570.171 113.384h17.558l10.438-14.254h18.541v18.431h.737v51.362c-1.474.983-4.053 3.809-6.14 9.953h-54.764l3.07-52.099c0-7.373 3.069-13.393 10.56-13.393zM535.175 122.353l6.754 6.636-19.033 19.045-6.753-6.635 19.032-19.046z" fill="#fff"/><path d="M655.018 161.059c0-2.458-.614-4.792-1.965-7.004l-19.4-34.036c-2.456-4.178-6.877-6.513-11.42-6.513h-15.594c-7.367 0-13.384 5.898-13.384 13.271v34.036c0 9.953 8.227 18.186 18.173 18.186 0 0 1.596 3.932 5.034 11.427l-1.351 2.826c5.649 4.669 7.859 7.618 12.525 1.966l24.067-25.189c2.333-2.826 3.315-5.898 3.315-8.97zM567.96 199.519v-73.725c0-6.881 5.526-12.41 12.402-12.41h-11.296c-6.877 0-12.648 5.529-12.648 12.41v73.725h11.542z" fill="#14142B"/><path d="M587.73 113.384h-10.192v65.492h10.192v-65.492z" fill="#0084C6"/></g><path fill="#0084C6" d="M525.213 264.055h127.808v35.946H525.213z"/><g clip-path="url(#clip0)"><path d="M56.226 193.46l-3.783.695 11.004 59.89 3.782-.695-11.003-59.89z" fill="#CA863F"/><path d="M78.139 146.01l-63.042 11.583 7.72 42.017 63.042-11.582-7.72-42.018z" fill="#007ABC"/><path d="M56.12 162.538l-15.8 2.916a8.898 8.898 0 00-1.25 6.282l2.082 11.314a6.836 6.836 0 001.923 3.685c1.539 1.507 3.814 2.244 6.186 1.827l12.916-2.371-3.301-17.916c-.865-.032-2.756-5.737-2.756-5.737z" fill="#FFC49D"/><path d="M59.453 161.801l2.564-1.154c-2.404-2.436-6.634-3.045-9.935-1.539-2.468 1.122-4.103 3.27-4.68 5.705" fill="#FFE9CC"/><path d="M58.107 160.871c-1.506-3.301-4.743-3.782-8.173-3.493l3.11 5.673M38.204 165.711l-2.82-.193c1.378-3.14 5.127-5.192 8.75-4.967 2.691.16 4.999 1.602 6.41 3.685" fill="#FFE9CC"/><path d="M43.011 160.487l10.449-1.923c2.916-.545 5.737 1.41 6.282 4.326l1.698 9.263-15.736 2.884c-3.237.577-6.314-1.538-6.891-4.775l-.545-2.885c-.609-3.205 1.506-6.314 4.743-6.89z" fill="#FFE9CC"/><path d="M56.472 176.48a3.823 3.823 0 013.077-4.455 3.823 3.823 0 014.455 3.076 3.823 3.823 0 01-3.077 4.455 3.823 3.823 0 01-4.455-3.076z" fill="#FFC49D"/><path d="M47.402 182.152l-2.852.513c-.417.064-.673.481-.61.898.065.416.482.673.898.609l2.853-.513c.416-.064.673-.481.609-.898-.096-.384-.481-.673-.898-.609z" fill="#CF9475"/><path d="M384.343 283.879h-38.62v16.089h38.62v-16.089z" fill="#E2E2E2"/><path d="M307.607 195.751l-3.75.855 13.549 59.367 3.75-.856-13.549-59.366z" fill="#CA863F"/><path d="M327.491 147.409L265 161.672l9.506 41.65 62.491-14.262-9.506-41.651z" fill="#007ABC"/><path d="M306.173 164.91l-15.672 3.589a9.004 9.004 0 00-.994 6.346l2.564 11.218a6.744 6.744 0 002.084 3.589c1.602 1.442 3.91 2.083 6.249 1.571l12.788-2.917-4.07-17.756c-.801-.064-2.949-5.64-2.949-5.64z" fill="#FFC49D"/><path d="M309.475 164.012l2.499-1.282c-2.499-2.34-6.762-2.756-9.999-1.122a8.314 8.314 0 00-4.423 5.93" fill="#FFE9CC"/><path d="M308.129 163.147c-1.635-3.237-4.904-3.558-8.301-3.141l3.333 5.545M288.418 168.82l-2.821-.064c1.218-3.205 4.904-5.417 8.526-5.353a8.42 8.42 0 016.57 3.397" fill="#FFE9CC"/><path d="M293.001 163.403l10.352-2.372a5.351 5.351 0 016.442 4.071l2.083 9.166-15.608 3.558c-3.205.737-6.378-1.282-7.115-4.455l-.641-2.885c-.705-3.173 1.314-6.346 4.487-7.083z" fill="#FFE9CC"/><path d="M307.135 178.819c-.481-2.051.801-4.102 2.885-4.583 2.051-.481 4.102.833 4.583 2.885.481 2.051-.834 4.134-2.885 4.583a3.866 3.866 0 01-4.583-2.885z" fill="#FFC49D"/><path d="M298.321 184.877l-2.852.641c-.417.096-.673.512-.577.897.096.417.513.673.897.577l2.853-.641c.416-.096.673-.513.576-.897-.096-.385-.48-.673-.897-.577z" fill="#CF9475"/><path d="M312.488 268.463a7.353 7.353 0 01-10.417 0l-9.967-9.968a7.35 7.35 0 010-10.416 7.351 7.351 0 0110.416 0l9.968 9.968c2.884 2.852 2.884 7.531 0 10.416z" fill="#FFB68D"/><path d="M302.52 268.463a7.35 7.35 0 010-10.416l9.967-9.968a7.353 7.353 0 0110.417 0 7.351 7.351 0 010 10.416l-9.968 9.968c-2.852 2.852-7.532 2.852-10.416 0z" fill="#FFB68D"/><path d="M307.456 252.983l-4.936-4.936a7.351 7.351 0 00-10.416 0 7.35 7.35 0 000 10.416l4.935 4.936 10.417-10.416z" fill="#E2E2E2"/><path d="M59.55 265.29a6.732 6.732 0 01-9.52 0l-8.621-8.622a6.73 6.73 0 019.519-9.518l8.621 8.621a6.732 6.732 0 010 9.519z" fill="#FFB68D"/><path d="M46.857 262.117l-5.448-5.449a6.73 6.73 0 019.519-9.518l5.448 5.448" fill="#007ABC"/><path d="M49.934 265.29a6.732 6.732 0 010-9.519l8.622-8.621a6.73 6.73 0 019.519 9.518l-8.622 8.622c-2.628 2.596-6.89 2.596-9.519 0zM270.598 245.9v-35.896h34.582v24.197c0 6.539-5.352 11.731-11.858 11.731h-22.724v-.032z" fill="#FFB68D"/><path d="M283.29 217.503v7.853c0 5.128 3.397 8.813 7.5 8.813h1.378c1.089-2.467 3.589-4.038 6.474-4.038 2.884 0 5.448 1.571 6.538 4.038 0 7.051-5.032 11.667-11.506 11.667h-8.365c-5.384 0-9.262-4.327-9.262-9.744v-18.621h7.243v.032z" fill="#E2690E"/><path d="M278.483 202.152h13.364l-4.487-2.564a11.213 11.213 0 0112.276-.706c3.974 2.308 5.512 6.346 5.512 11.122h-21.89v9.006c-.417 6.602-5.993 11.858-12.724 11.858v-20.864a7.927 7.927 0 017.949-7.852z" fill="#E2690E"/><path d="M276.079 230.644c0-3.141-2.532-5.705-5.673-5.705a5.718 5.718 0 00-5.705 5.705 5.718 5.718 0 005.705 5.705c3.109 0 5.673-2.564 5.673-5.705zM185.826 214.683a13.066 13.066 0 00-4.615-9.326c-3.942 4.583-9.743 7.467-16.217 7.499.16.577-13.878 9.487-13.878 9.487v23.14h23.589c6.122 0 11.153-5.32 11.153-11.474l-.032-19.326z" fill="#FFB68D"/><path d="M151.148 214.683a13.093 13.093 0 013.237-7.98 13.011 13.011 0 019.808-4.423h8.621c3.205 0 6.122 1.154 8.397 3.077-3.942 4.583-9.743 7.467-16.217 7.499 0-.032 0-.064-.032-.064.16.609.256 1.25.288 1.923v4.904c0 6.57-5.352 11.922-11.922 11.922l-2.18-4.358v-12.5z" fill="#917F6E"/><path d="M157.013 230.259c0-3.141-2.532-5.705-5.673-5.705a5.718 5.718 0 00-5.705 5.705 5.718 5.718 0 005.705 5.705c3.109 0 5.673-2.564 5.673-5.705z" fill="#FFB68D"/><path d="M344.505 214.747h2.212v1.859l7.884 1.506v2.276h18.493c5.801 7.339 4.968 12.051 4.968 17.852h-1.699c0 5.801-9.391 10.576-15.192 10.576h-7.019c-3.942 0-7.371-2.211-9.198-5.448-1.987 3.077-5.416 5.128-9.327 5.128h-2.211v-22.66c0-6.089 5-11.089 11.089-11.089z" fill="#E2E2E2"/><path d="M354.569 216.574v32.242h18.108c7.34 0 11.602-5.256 11.602-12.083v-20.351l-29.71.192z" fill="#FFB68D"/><path d="M343.64 216.029c0 5.801 2.788 10.513 8.59 10.673h21.601c5.801-.16 10.513-4.872 10.513-10.673s-4.712-10.865-10.513-10.865H354.12c-5.801 0-10.48 5.064-10.48 10.865z" fill="#E2E2E2"/><path d="M360.178 232.311c0-4.359-5-7.532-9.583-4.103-3.461 4.583-.352 9.679 4.038 9.679 3.077 0 5.545-2.5 5.545-5.576zM23.621 212.76v32.435H41.73c7.34 0 11.602-5.257 11.602-12.083V212.76h-29.71z" fill="#FFB68D"/><path d="M29.07 228.689c0-3.077-2.34-5.545-5.417-5.545s-5.512 2.5-5.512 5.545c0 3.077 2.435 5.577 5.512 5.577 3.077 0 5.417-2.5 5.417-5.577z" fill="#FFB68D"/><path d="M12.66 212.408c0-5.802 4.68-10.865 10.48-10.865h19.711c5.801 0 10.513 5.031 10.513 10.865 0 5.801-4.712 10.512-10.513 10.672H29.07v5.865c0 4.071 2.596 7.34 6.634 7.34 2.02 0 3.846-.802 5.16-2.116-1.506 6.282-7.18 11.026-13.91 11.026-.993 0-2.884 0-3.365-.032l-.416.032c-5.801 0-10.513-4.776-10.513-10.577v-22.21zM266.175 245.868h4.295v-8.942h10.576l6.571 8.942h9.39c4.519.096 8.173 3.749 8.173 8.301v45.799h-38.909v-10.577h-7.563v-36.28c0-4.135 3.365-7.179 7.467-7.243z" fill="#E2E2E2"/><path d="M287.548 283.897h6.153v-38.043h-6.153v38.043z" fill="#D6842B"/><path d="M146.853 245.323h4.295v-8.942h10.576l6.571 8.942h9.39c4.519.096 8.173 3.75 8.173 8.301v46.344h-39.325v-36.441l-7.115-10.993c0-4.102 3.333-7.147 7.435-7.211z" fill="#E2E2E2"/><path d="M168.241 294.469h6.153v-49.196h-6.153v49.196z" fill="#007ABC"/><path d="M345.339 248.816h30.8c4.519.096 8.173 3.782 8.173 8.333V300h-7.532a8.142 8.142 0 01-7.308-7.98c-.064 4.166-3.269 7.595-7.339 7.98h-16.826v-36.857l-7.468-7.051c.064-4.167 3.397-7.212 7.5-7.276z" fill="#4C3F3F"/><path d="M351.108 240.003h10.64l6.507 8.941h-17.147v-8.941z" fill="#4C3F3F"/><path d="M370.338 266.38a2.5 2.5 0 10-.002-5.002 2.5 2.5 0 00.002 5.002zM370.338 281.764a2.5 2.5 0 10-.002-5.002 2.5 2.5 0 00.002 5.002z" fill="#fff"/><path d="M199.287 252.438c0-4.135 3.333-7.179 7.468-7.211h30.8c4.519.096 8.172 3.75 8.172 8.301v46.44h-38.46l-.512-38.909M21.89 245.195h23.814c4.23 0 7.627 3.461 7.692 7.692V300H16.794l-.16-39.421h5.256v-15.384z" fill="#000505"/><path d="M22.083 256.476h24.614l-1.25-11.281H22.083v11.281z" fill="#FFB68D"/><path d="M45.992 252.887c-.032-4.231-3.43-7.692-7.692-7.692h7.372c4.23 0 7.628 3.461 7.692 7.692V292.436a7.372 7.372 0 01-7.372-7.371v-32.178zM10 252.855c0-3.718 3.077-7.66 6.795-7.66h8.589a8.808 8.808 0 018.814 8.813v29.518a9.165 9.165 0 01-9.167 9.167H14.167v-16.025H10v-23.813z" fill="#007ABC"/><path d="M23.493 289.776a6.73 6.73 0 01-6.73 6.731c-3.718 0-6.795-3.013-6.795-6.731v-13.108h13.493v13.108h.032z" fill="#FFB68D"/><path d="M142.046 198.392l-3.518 1.553 24.595 55.707 3.518-1.554-24.595-55.706z" fill="#CA863F"/><path d="M152.346 147.154l-58.639 25.889 17.256 39.083 58.638-25.89-17.255-39.082z" fill="#007ABC"/><path d="M134.738 168.371l-14.679 6.474a8.875 8.875 0 00.225 6.41l4.647 10.512a6.908 6.908 0 002.724 3.141c1.859 1.122 4.231 1.314 6.442.353l12.019-5.288-7.372-16.666c-.833.16-4.006-4.936-4.006-4.936z" fill="#FFC49D"/><path d="M137.815 166.865l2.212-1.731c-2.885-1.827-7.18-1.41-10.032.801-2.147 1.667-3.237 4.135-3.237 6.634" fill="#FFE9CC"/><path d="M136.309 166.288c-2.212-2.853-5.481-2.564-8.75-1.507l4.359 4.808M118.04 175.582l-2.756.481c.609-3.365 3.782-6.25 7.339-6.859 2.661-.449 5.257.385 7.083 2.083" fill="#FFE9CC"/><path d="M121.534 169.396l9.711-4.294c2.724-1.218 5.897.032 7.115 2.756l3.814 8.622-14.647 6.474c-3.013 1.314-6.506-.032-7.82-3.045l-1.186-2.692c-1.346-2.981 0-6.474 3.013-7.821z" fill="#FFE9CC"/><path d="M138.328 181.832c-.865-1.923 0-4.199 1.955-5.032 1.923-.865 4.199.032 5.064 1.955.865 1.923-.032 4.199-1.955 5.064a3.856 3.856 0 01-5.064-1.987z" fill="#FFC49D"/><path d="M130.828 189.46l-2.66 1.186c-.385.16-.545.609-.385.993.161.385.609.545.994.385l2.66-1.186c.385-.16.545-.609.385-.994-.161-.384-.609-.544-.994-.384z" fill="#CF9475"/><path d="M150.571 266.155l-9.198-9.198a6.732 6.732 0 019.519-9.519l9.518 9.519" fill="#E2E2E2"/><path d="M149.898 265.546a6.732 6.732 0 010-9.519l8.622-8.621a6.73 6.73 0 019.518 9.519l-8.621 8.621c-2.628 2.628-6.923 2.628-9.519 0z" fill="#FFB68D"/><path d="M348.864 269.488l-9.198-9.198a6.732 6.732 0 019.519-9.519l9.519 9.519" fill="#4C3F3F"/><path d="M363.799 262.79l-6.089 6.09a6.732 6.732 0 01-9.519-9.519l6.09-6.09" fill="#4C3F3F"/><path d="M273.835 289.391c0 4.199-3.397 7.372-7.564 7.372-4.198 0-7.563-3.173-7.563-7.372h15.127z" fill="#FFB68D"/><path d="M208.902 245.227v-37.05h34.614v24.807c0 6.538-5.352 12.211-11.89 12.211h-22.724v.032z" fill="#894100"/><path d="M216.818 200.517h26.698v7.66h-.032c-2.051 3.942-6.154 6.634-10.929 6.634-4.743 0-8.846-2.692-10.929-6.634v9.294c0 6.987-5.737 12.692-12.724 12.692v-21.986c0-4.359 3.558-7.66 7.916-7.66z" fill="#000505"/><path d="M214.607 229.971c0-3.141-2.532-5.705-5.673-5.705a5.718 5.718 0 00-5.705 5.705 5.718 5.718 0 005.705 5.705c3.141 0 5.673-2.564 5.673-5.705z" fill="#894100"/><path d="M367.164 199.446l-3.845-.083-1.32 60.882 3.845.084 1.32-60.883z" fill="#CA863F"/><path d="M398.21 157.405l-64.087-1.389-.926 42.714 64.087 1.389.926-42.714z" fill="#007ABC"/><path d="M373.286 169.172l-16.057-.352c-1.474 1.538-2.436 3.621-2.5 5.897l-.256 11.506c-.032 1.506.385 2.884 1.154 4.006 1.218 1.795 3.269 2.981 5.673 3.045l13.108.288.385-18.236c-.802-.225-1.507-6.154-1.507-6.154z" fill="#FFC49D"/><path d="M376.684 169.108l2.756-.609c-1.859-2.884-5.897-4.327-9.423-3.525a8.383 8.383 0 00-5.737 4.647" fill="#FFE9CC"/><path d="M375.562 167.954c-.801-3.525-3.878-4.647-7.275-5.064l1.891 6.186M355.082 168.627l-2.724-.737c1.987-2.788 6.057-4.07 9.551-3.109a8.344 8.344 0 015.544 4.904" fill="#FFE9CC"/><path d="M360.851 164.493l10.608.224a5.405 5.405 0 015.289 5.513l-.193 9.422-15.993-.352c-3.269-.064-5.865-2.788-5.801-6.058l.065-2.948c.032-3.269 2.756-5.865 6.025-5.801z" fill="#FFE9CC"/><path d="M370.818 182.89c.032-2.116 1.795-3.782 3.91-3.75 2.116.032 3.782 1.794 3.75 3.91-.032 2.115-1.795 3.782-3.91 3.75-2.147-.064-3.814-1.795-3.75-3.91z" fill="#FFC49D"/><path d="M360.787 186.607l-2.917-.064c-.416 0-.769.321-.769.737 0 .417.321.77.737.77l2.917.064c.416 0 .769-.321.769-.737 0-.385-.321-.738-.737-.77z" fill="#CF9475"/><path d="M354.281 253.271l2.499-2.5a6.732 6.732 0 019.519 9.519l-2.5 2.5" fill="#FFB68D"/><path d="M96.343 216.895v32.658h18.108c7.339 0 11.602-5.256 11.602-12.082v-20.576h-29.71z" fill="#894100"/><path d="M79.388 229.715c-2.308-1.443-3.846-3.975-3.846-6.891 0-4.071 3.013-7.468 6.955-8.013v-5.993c0-4.647 3.814-8.461 8.461-8.461 3.622 0 6.73 2.307 7.916 5.544h16.731c5.801 0 10.512 5.032 10.512 10.865 0 5.801-4.711 10.513-10.512 10.673H96.246l-.48 2.852c0 2.532 2.532 2.885.737 2.693v5.801a10.834 10.834 0 01-10.865 10.672c-5.994 0-10.865-4.871-10.865-10.865 0-3.653 1.827-6.89 4.615-8.877z" fill="#000505"/><path d="M101.951 233.048a5.526 5.526 0 00-5.544-5.545c-3.077 0-5.513 2.5-5.513 5.545 0 3.077 2.436 5.576 5.513 5.576 3.076 0 5.544-2.499 5.544-5.576z" fill="#894100"/><path d="M126.149 288.206H87.144V300h39.005v-11.794zM79.709 257.79c0-3.173 2.05-6.282 4.871-7.596v12.243h41.601v12.981H82.625L79.71 257.79z" fill="#E2E2E2"/><path d="M84.548 250.194a7.087 7.087 0 012.724-.641h30.704c4.519.097 8.173 3.782 8.173 8.333v4.519h-41.6v-12.211zM126.149 275.418v12.788H87.144v-12.788h-2.596 41.601z" fill="#CE1111"/><path d="M88.907 280.994a7.69 7.69 0 01-3.974-1.121c-2.084-1.25-3.43-3.43-3.686-5.833l-1.57-16.09a7.67 7.67 0 016.89-8.397 7.67 7.67 0 018.397 6.891l.577 5.833 2.853-1.154a7.694 7.694 0 0110.031 4.231 7.694 7.694 0 01-4.23 10.032l-12.404 5.064c-.93.384-1.923.544-2.884.544z" fill="#CE1111"/><path d="M93.01 263.111l5.416-1.956a7.694 7.694 0 0110.031 4.231 7.694 7.694 0 01-4.23 10.032l-5.609 2.307" fill="#E2E2E2"/><path d="M80.542 267.053l-.898-9.071a7.67 7.67 0 016.891-8.397 7.67 7.67 0 018.397 6.891l.577 5.833" fill="#E2E2E2"/><path d="M107.592 273.911c3.91-1.698 5.673-6.217 3.974-10.127-1.698-3.911-6.217-5.673-10.127-3.975l-2.276.994 6.154 14.102 2.275-.994z" fill="#894100"/><path d="M217.785 198.394l-3.81.522 8.263 60.328 3.811-.522-8.264-60.328z" fill="#CA863F"/><path d="M241.845 151.98l-63.504 8.699 5.798 42.325 63.504-8.699-5.798-42.325z" fill="#007ABC"/><path d="M219.094 167.506l-15.929 2.179c-1.218 1.763-1.827 3.942-1.538 6.218l1.57 11.377c.193 1.507.834 2.789 1.763 3.75 1.474 1.571 3.718 2.436 6.09 2.116l13.012-1.795-2.468-18.044c-.865-.032-2.5-5.801-2.5-5.801z" fill="#FFC49D"/><path d="M222.46 166.929l2.596-1.058c-2.276-2.564-6.507-3.333-9.84-1.987a8.288 8.288 0 00-4.935 5.512" fill="#FFE9CC"/><path d="M221.177 165.935c-1.346-3.365-4.583-3.974-7.98-3.878l2.852 5.801M201.05 169.845l-2.788-.32c1.506-3.077 5.352-4.968 8.942-4.583 2.692.288 4.935 1.826 6.249 3.974" fill="#FFE9CC"/><path d="M206.082 164.845l10.512-1.442c2.949-.417 5.673 1.667 6.09 4.615l1.282 9.327-15.865 2.179c-3.237.449-6.25-1.827-6.666-5.064l-.385-2.916c-.481-3.237 1.795-6.25 5.032-6.699z" fill="#FFE9CC"/><path d="M218.806 181.447c-.289-2.083 1.185-4.006 3.269-4.294 2.083-.289 4.038 1.185 4.326 3.269.289 2.083-1.185 4.038-3.269 4.326-2.115.257-4.038-1.217-4.326-3.301z" fill="#FFC49D"/><path d="M209.479 186.703l-2.884.385a.76.76 0 00-.641.865.759.759 0 00.865.641l2.885-.384a.761.761 0 00.641-.866c-.064-.384-.449-.673-.866-.641z" fill="#CF9475"/><path d="M208.357 276.796a7.691 7.691 0 01-3.974-1.122c-2.083-1.25-3.429-3.429-3.686-5.833l-1.57-16.089a7.669 7.669 0 016.89-8.397 7.668 7.668 0 018.397 6.891l.577 5.833 2.853-1.154a7.692 7.692 0 0110.031 4.23 7.693 7.693 0 01-4.23 10.032l-12.371 5.032a7.628 7.628 0 01-2.917.577z" fill="#000505"/><path d="M227.94 268.623c3.686-2.115 4.968-6.827 2.852-10.512-2.115-3.686-6.826-4.968-10.512-2.853l-2.147 1.25 7.66 13.365 2.147-1.25z" fill="#894100"/></g><defs><clipPath id="clip0"><path fill="#fff" d="M10 146h388.189v154H10z"/></clipPath></defs></svg>