<svg width="180" height="180" viewBox="0 0 180 180" fill="none" xmlns="http://www.w3.org/2000/svg">
<g clip-path="url(#clip0)">
<rect width="180" height="180" fill="white"/>
<rect x="98.2122" y="104.906" width="28.0576" height="14.0288" transform="rotate(-16.6516 98.2122 104.906)" fill="#F9DE6A"/>
<path d="M110.52 92.2642V118.278C110.52 124.408 115.385 129.967 121.538 129.967H132.27V92.2642H110.52Z" fill="#F9DE6A"/>
<path d="M133.415 154.984H123.613V175.082H133.415V154.984Z" fill="#F5C5A2"/>
<path d="M116.172 180L133.415 166.387V180H129.05V177.149L125.044 180H116.172Z" fill="#14142B"/>
<path d="M150.657 154.984H140.855V175.082H150.657V154.984Z" fill="#F5C5A2"/>
<path d="M133.415 180L150.657 166.387V180H146.293V177.149L142.286 180H133.415Z" fill="#14142B"/>
<path d="M151.945 120.417L150.872 130.894V160.757H116.172V120.417H151.945Z" fill="#F9DE6A"/>
<path d="M125.473 92.2642C120.107 92.2642 116.172 96.1841 116.172 101.743V128.399H151.444V92.2642H125.473Z" fill="#14142B"/>
<path d="M134.846 101.244V92.2642H125.187C119.964 92.2642 116.387 95.899 116.172 101.173H134.846V101.244Z" fill="#14142B"/>
<path d="M151.23 140.872C155.093 140.872 158.241 137.736 158.241 133.887V133.388H144.218V133.887C144.218 137.736 147.366 140.872 151.23 140.872Z" fill="#F5C5A2"/>
<path d="M151.23 92.2642C151.158 92.2642 151.015 92.2642 150.943 92.2642H130.481V116.568C130.481 122.697 135.489 128.613 141.642 128.613H144.218V133.388H158.17V99.2488C158.241 95.4001 155.093 92.2642 151.23 92.2642Z" fill="#F9DE6A"/>
<path d="M131.698 50H120.608C115.957 50.1425 112.237 53.9912 112.237 58.6239V71.239C112.237 76.0143 116.172 79.8629 120.894 79.8629H121.466C126.26 79.8629 131.411 75.943 131.411 71.239L131.698 50Z" fill="#CA863F"/>
<path d="M148.439 70.17H142.859V92.2643L150.872 87.2753L148.439 70.17Z" fill="#14142B"/>
<path d="M131.698 61.7599V61.8312H116.172V81.6448C116.172 87.7741 121.109 92.2643 127.19 92.2643H134.846H142.93V61.7599H131.698Z" fill="#F5C5A2"/>
<path d="M137.278 77.0121C137.278 73.9474 139.782 67.2478 142.859 67.2478C145.935 67.2478 148.439 73.9474 148.439 77.0121C148.439 80.0768 145.935 82.5713 142.859 82.5713C139.782 82.5713 137.278 80.0768 137.278 77.0121Z" fill="#F5C5A2"/>
<path d="M152.303 51.6393C150.872 50.6414 149.155 50 147.295 50H125.187C120.393 50 114.526 53.92 114.526 58.6239V70.17H128.549C132.628 70.17 135.561 66.8915 135.919 62.829C141.929 66.7489 146.221 72.8783 146.221 80.6469C146.221 84.9233 145.005 88.9145 142.93 92.3355C143.789 92.3355 155.952 92.977 155.952 82.3575V58.6239V58.3388C155.952 55.4879 154.521 53.0647 152.303 51.6393Z" fill="#CA863F"/>
<path d="M127.333 84.5668H122.396C121.395 84.5668 120.608 83.7828 120.608 82.785C120.608 81.7872 121.395 81.0032 122.396 81.0032H127.333C128.335 81.0032 129.122 81.7872 129.122 82.785C129.122 83.7828 128.335 84.5668 127.333 84.5668Z" fill="#CF4538"/>
<path d="M93.0531 113.767C94.1602 117.468 98.0667 119.586 101.754 118.483L102.232 118.34L98.2137 104.905L97.7357 105.048C94.0484 106.151 91.946 110.065 93.0531 113.767Z" fill="#F5C5A2"/>
<path d="M85.6085 18.1605C85.5491 17.5991 85.9561 17.0959 86.5174 17.0365C87.0788 16.9772 87.582 17.3841 87.6414 17.9455L103.337 166.349L101.304 166.564L85.6085 18.1605Z" fill="#C4C4C4"/>
<rect x="24.7282" y="25.6272" width="64.3944" height="38.841" transform="rotate(-6.03725 24.7282 25.6272)" fill="#0065BD"/>
<path d="M28.3268 59.4746L80.7186 19.7055L88.7654 18.8544L89.3178 24.2565L37.9615 63.2852L28.8133 64.2527L28.3268 59.4746Z" fill="white"/>
<path d="M92.444 53.0707L32.8599 24.7671L24.7282 25.6271L25.2897 30.9358L84.6925 58.343L92.9096 57.4738L92.444 53.0707Z" fill="white"/>
<rect x="88.9302" y="57.8948" width="4.08853" height="1.02213" transform="rotate(-6.03725 88.9302 57.8948)" fill="#C4C4C4"/>
<rect x="84.7376" y="18.2527" width="4.08853" height="1.02213" transform="rotate(-6.03725 84.7376 18.2527)" fill="#C4C4C4"/>
</g>
<defs>
<clipPath id="clip0">
<rect width="180" height="180" fill="white"/>
</clipPath>
</defs>
</svg>
