<svg width="180" height="180" viewBox="0 0 180 180" fill="none" xmlns="http://www.w3.org/2000/svg">
<rect width="180" height="180" fill="white"/>
<rect x="57" y="164" width="30" height="16" fill="#B62519"/>
<rect x="26" y="164" width="30" height="16" fill="#B62519"/>
<rect x="88" y="164" width="30" height="16" fill="#B62519"/>
<rect x="72" y="147" width="30" height="16" fill="#B62519"/>
<rect x="41" y="147" width="30" height="16" fill="#B62519"/>
<rect x="103" y="147" width="30" height="16" fill="#B62519"/>
<rect x="72" y="113" width="30" height="16" fill="#B62519"/>
<rect x="103" y="113" width="30" height="16" fill="#B62519"/>
<rect x="57" y="130" width="30" height="16" fill="#B62519"/>
<rect x="88" y="130" width="30" height="16" fill="#B62519"/>
<rect x="88" y="96" width="30" height="16" fill="#B62519"/>
<rect x="119" y="164" width="30" height="16" fill="#B62519"/>
<rect x="134" y="147" width="30" height="16" fill="#B62519"/>
<rect x="134" y="113" width="30" height="16" fill="#B62519"/>
<rect x="165" y="147" width="15" height="16" fill="#B62519"/>
<rect x="165" y="113" width="15" height="16" fill="#B62519"/>
<rect x="119" y="130" width="30" height="16" fill="#B62519"/>
<rect x="119" y="96" width="30" height="16" fill="#B62519"/>
<rect x="150" y="164" width="30" height="16" fill="#B62519"/>
<rect x="150" y="130" width="30" height="16" fill="#B62519"/>
<rect x="150" y="96" width="30" height="16" fill="#B62519"/>
<path d="M144.148 9.38977H126.001C124.368 11.1661 123.36 13.5186 123.312 16.1592V29.1699C123.312 30.8983 123.84 32.4346 124.704 33.6349C126.097 35.6513 128.449 36.9476 131.186 36.9476H146.021V16.3032C145.109 16.1112 144.148 9.38977 144.148 9.38977Z" fill="#F5C5A2"/>
<path d="M148.037 9.24576L151.11 8.4776C148.949 5.26092 144.341 3.7246 140.356 4.73281C137.379 5.45296 135.123 7.5174 133.97 10.158" fill="#FAE8CE"/>
<path d="M146.741 7.94945C145.733 3.96461 142.228 2.76436 138.387 2.38028L140.692 9.34174" fill="#FAE8CE"/>
<path d="M123.552 9.24576L120.479 8.4776C122.64 5.26092 127.249 3.7246 131.234 4.73281C134.21 5.45296 136.467 7.5174 137.619 10.158" fill="#FAE8CE"/>
<path d="M129.985 4.39673H141.988C145.349 4.39673 148.085 7.1333 148.085 10.494V21.1523H129.985C126.289 21.1523 123.264 18.1276 123.264 14.4308V11.1181C123.264 7.42137 126.289 4.39673 129.985 4.39673Z" fill="#FAE8CE"/>
<path d="M141.7 24.9931C141.7 22.5926 143.62 20.6721 146.021 20.6721C148.421 20.6721 150.342 22.5926 150.342 24.9931C150.342 27.3936 148.373 29.314 146.021 29.314C143.62 29.314 141.7 27.3456 141.7 24.9931Z" fill="#F5C5A2"/>
<path d="M130.466 29.458H127.153C126.673 29.458 126.289 29.8421 126.289 30.3222C126.289 30.8023 126.673 31.1864 127.153 31.1864H130.466C130.946 31.1864 131.33 30.8023 131.33 30.3222C131.33 29.8421 130.946 29.458 130.466 29.458Z" fill="#C5957A"/>
<path d="M151.35 63.7372L155.335 73.9634H145.733V63.8812L151.35 63.7372Z" fill="#14142B"/>
<path d="M105.548 39.3961C107.613 37.3316 110.973 37.3316 113.038 39.3961L114.094 40.4523L106.701 47.8939L105.548 46.8856C103.484 44.8212 103.484 41.4605 105.548 39.3961Z" fill="#F5C5A2"/>
<path d="M130.802 38.6279C128.737 36.5635 125.425 36.5635 123.36 38.6279L117.887 44.1491L116.783 43.0448L109.341 50.4864L114.094 55.1434C114.142 55.1914 114.142 55.2394 114.19 55.2394C116.255 57.3038 119.567 57.3038 121.632 55.2394L130.802 46.0695C132.866 44.005 132.866 40.6924 130.802 38.6279Z" fill="#14142B"/>
<path d="M122.496 62.4889V90.0947H121.872C120.239 90.0947 118.943 91.391 118.943 93.0234C118.943 94.6557 120.239 95.952 121.872 95.952H133.346L133.298 76.988H137.427V90.1427H137.379H136.659C135.027 90.1427 133.73 91.439 133.73 93.0714C133.73 94.7037 135.027 96 136.659 96H148.133V62.5369H122.496V62.4889Z" fill="#14142B"/>
<path d="M127.825 36.9476H134.69L138.771 31.3784H146.021V38.5799H146.309V58.6481C145.733 59.0322 144.725 60.1364 143.908 62.5369H122.496L123.696 42.1807C123.696 39.3001 124.896 36.9476 127.825 36.9476Z" fill="white"/>
<path d="M114.142 40.4523L116.783 43.0448L109.341 50.4864L106.701 47.8939L114.142 40.4523Z" fill="white"/>
<path d="M161 55.5755C161 54.6153 160.76 53.7031 160.232 52.8389L152.646 39.5401C151.686 37.9078 149.958 36.9956 148.181 36.9956H142.084C139.203 36.9956 136.851 39.3001 136.851 42.1807C136.851 42.2287 136.851 42.2287 136.851 42.2767V55.4795C136.851 59.3683 140.068 62.585 143.956 62.585C143.956 62.585 144.581 64.1213 145.925 67.0499L145.397 68.1541C147.605 69.9785 148.469 71.1308 150.294 68.9223L159.704 59.0802C160.616 57.976 161 56.7757 161 55.5755Z" fill="#14142B"/>
<path d="M126.961 70.6026V41.7966C126.961 39.108 129.121 36.9475 131.81 36.9475H127.393C124.704 36.9475 122.448 39.108 122.448 41.7966V70.6026H126.961Z" fill="#14142B"/>
<path d="M134.69 36.9475H130.706V62.5369H134.69V36.9475Z" fill="#3882C0"/>
</svg>
