<svg width="180" height="180" viewBox="0 0 180 180" fill="none" xmlns="http://www.w3.org/2000/svg">
<g clip-path="url(#clip0)">
<rect width="180" height="180" fill="white"/>
<path d="M105.868 74.9633V106.107C105.868 113.445 111.693 120.101 119.059 120.101H131.907V74.9633H105.868Z" fill="#F9DE6A"/>
<path d="M133.278 150.051H121.543V174.113H133.278V150.051Z" fill="#F5C5A2"/>
<path d="M112.635 180L133.278 163.703V180H128.053V176.587L123.256 180H112.635Z" fill="#14142B"/>
<path d="M153.921 150.051H142.186V174.113H153.921V150.051Z" fill="#F5C5A2"/>
<path d="M133.278 180L153.921 163.703V180H148.696V176.587L143.899 180H133.278Z" fill="#14142B"/>
<path d="M155.462 108.667L154.178 121.21V156.962H112.635V108.667H155.462Z" fill="#F9DE6A"/>
<path d="M123.77 74.9633C117.346 74.9633 112.635 79.6562 112.635 86.3117V118.224H154.863V74.9633H123.77Z" fill="#14142B"/>
<path d="M134.991 85.7144V74.9633H123.427C117.175 74.9633 112.892 79.3149 112.635 85.6291H134.991V85.7144Z" fill="#14142B"/>
<path d="M154.606 133.156C159.231 133.156 163 129.401 163 124.794V124.197H146.212V124.794C146.212 129.401 149.98 133.156 154.606 133.156Z" fill="#F5C5A2"/>
<path d="M154.606 74.9633C154.52 74.9633 154.349 74.9633 154.263 74.9633H129.766V104.06C129.766 111.398 135.762 118.48 143.128 118.48H146.212V124.197H162.914V83.3252C163 78.7176 159.231 74.9633 154.606 74.9633Z" fill="#F9DE6A"/>
<path d="M131.222 24.3647H117.945C112.378 24.5354 107.924 29.143 107.924 34.6892V49.792C107.924 55.5089 112.635 60.1165 118.288 60.1165H118.973C124.712 60.1165 130.879 55.4235 130.879 49.792L131.222 24.3647Z" fill="#CA863F"/>
<path d="M151.265 48.5122H144.584V74.9634L154.178 68.9905L151.265 48.5122Z" fill="#14142B"/>
<path d="M131.222 38.4435V38.5288H112.635V62.2495C112.635 69.5876 118.545 74.9632 125.826 74.9632H134.991H144.67V38.4435H131.222Z" fill="#F5C5A2"/>
<path d="M137.903 56.7035C137.903 53.0345 140.901 45.0138 144.584 45.0138C148.267 45.0138 151.265 53.0345 151.265 56.7035C151.265 60.3725 148.267 63.359 144.584 63.359C140.901 63.359 137.903 60.3725 137.903 56.7035Z" fill="#F5C5A2"/>
<path d="M155.891 26.3273C154.177 25.1327 152.122 24.3647 149.895 24.3647H123.427C117.688 24.3647 110.665 29.0577 110.665 34.6892V48.5121H127.453C132.335 48.5121 135.847 44.5871 136.276 39.7235C143.471 44.4164 148.61 51.7545 148.61 61.0551C148.61 66.1747 147.154 70.9529 144.67 75.0486C145.698 75.0486 160.259 75.8165 160.259 63.1029V34.6892V34.3479C160.259 30.9349 158.546 28.0338 155.891 26.3273Z" fill="#CA863F"/>
<path d="M125.997 65.7479H120.087C118.888 65.7479 117.945 64.8093 117.945 63.6147C117.945 62.4202 118.888 61.4816 120.087 61.4816H125.997C127.196 61.4816 128.138 62.4202 128.138 63.6147C128.138 64.8093 127.196 65.7479 125.997 65.7479Z" fill="#CF4538"/>
<path d="M87.0039 8.94238C87.0039 8.29531 87.5284 7.77075 88.1755 7.77075C88.8226 7.77075 89.3471 8.29531 89.3471 8.94238V180H87.0039V8.94238Z" fill="#C4C4C4"/>
<rect x="16.7063" y="10.114" width="73.8125" height="44.5218" fill="#0065BD"/>
<path d="M16.7278 49.1307L81.2437 10.114L90.5188 10.114L90.4972 16.3385L27.2509 54.6359L16.7063 54.6359L16.7278 49.1307Z" fill="white"/>
<path d="M90.5869 49.5606L26.0793 10.114L16.7063 10.114L16.7063 16.2331L81.1154 54.636L90.5869 54.6358L90.5869 49.5606Z" fill="white"/>
<rect x="85.8323" y="54.6359" width="4.68651" height="1.17163" fill="#C4C4C4"/>
<rect x="85.8323" y="8.9425" width="4.68651" height="1.17163" fill="#C4C4C4"/>
</g>
<defs>
<clipPath id="clip0">
<rect width="180" height="180" fill="white"/>
</clipPath>
</defs>
</svg>
