<svg width="180" height="180" viewBox="0 0 180 180" fill="none" xmlns="http://www.w3.org/2000/svg">
<rect width="180" height="180" fill="white"/>
<path d="M62.1763 136.389C62.9599 133.818 65.6851 132.367 68.2555 133.15L69.5942 133.559L66.778 142.796L65.4148 142.468C62.8351 141.667 61.3926 138.959 62.1763 136.389Z" fill="#894100"/>
<path d="M82.3243 124.871C79.7806 124.096 77.0904 125.529 76.2974 128.082L74.1984 134.919L72.8422 134.52L70.026 143.757L75.8793 145.483C75.9329 145.499 75.9689 145.525 76.0132 145.524C78.5568 146.299 81.247 144.866 82.0225 142.323L85.5081 130.89C86.301 128.337 84.8586 125.629 82.3243 124.871Z" fill="#E2E2E2"/>
<path d="M69.5769 133.568L72.8423 134.52L70.0436 143.748L66.7688 142.779L69.5769 133.568Z" fill="#E2E2E2"/>
<path d="M90.2671 166.601L90.7025 168.857L92.1276 176.418L88.3471 179.407V170.757V170.737V168.857V166.601H79.3017L79.7371 168.857L81.182 176.458L76.9859 179.783H82.8249L85.4969 177.883V179.783H87.8919H88.3471H93.7309L96.403 177.883V179.783H99.2928V170.737V168.857V166.601H90.2671Z" fill="#000505"/>
<path d="M99.2928 156.249V155.16C99.2928 146.57 92.4839 143.838 92.4839 143.838H76.5108C76.5108 143.898 76.5108 143.779 76.5108 143.838C76.5108 148.47 76.6692 152.686 77.3817 156.447L79.3413 166.601H88.4065V156.724L90.3067 166.601H99.3324L99.2928 156.249Z" fill="#003772"/>
<path d="M76.5108 128.895C76.5108 128.934 76.5108 128.954 76.5108 128.994V143.858H92.4839L102.42 128.895" fill="#E2E2E2"/>
<path d="M99.0948 124.263C99.075 124.263 99.0553 124.263 99.0157 124.263C98.9761 124.263 98.9365 124.263 98.8771 124.263H81.2414C78.6683 124.263 76.59 126.341 76.5108 128.895H98.2635C98.2239 126.638 101.351 124.263 99.0948 124.263Z" fill="#E2E2E2"/>
<path d="M84.3579 141.19C85.0149 140.533 85.0212 139.474 84.3719 138.825C83.7226 138.175 82.6636 138.182 82.0066 138.839C81.3496 139.496 81.3433 140.555 81.9926 141.204C82.6419 141.853 83.7009 141.847 84.3579 141.19Z" fill="#4C3F3F"/>
<path d="M84.3579 135.252C85.015 134.595 85.0212 133.536 84.3719 132.887C83.7226 132.238 82.6637 132.244 82.0067 132.901C81.3496 133.558 81.3434 134.617 81.9927 135.266C82.6419 135.915 83.7009 135.909 84.3579 135.252Z" fill="#4C3F3F"/>
<path d="M84.358 129.314C85.015 128.657 85.0213 127.598 84.372 126.949C83.7227 126.299 82.6637 126.306 82.0067 126.963C81.3497 127.62 81.3434 128.679 81.9927 129.328C82.642 129.977 83.701 129.971 84.358 129.314Z" fill="#4C3F3F"/>
<path d="M112.713 142.691H104.874C103.251 142.691 101.747 141.859 100.876 140.493L95.1956 131.626C93.7902 129.409 94.4236 126.48 96.6405 125.055C98.8573 123.63 101.787 124.283 103.212 126.5L107.487 133.19H112.732C115.365 133.19 117.483 135.308 117.483 137.94C117.483 140.573 115.325 142.691 112.713 142.691Z" fill="#E2E2E2"/>
<path d="M113.9 142.69C116.533 142.69 118.65 140.572 118.65 137.94C118.65 135.307 116.533 133.19 113.9 133.19H112.356V142.69H113.9Z" fill="#894100"/>
<path d="M111.633 72.3535L109.225 72.4686L114.583 150.712L116.991 150.596L111.633 72.3535Z" fill="#CA863F"/>
<path d="M136.374 36.488L84.823 38.9537L87.327 75.5231L138.879 73.0573L136.374 36.488Z" fill="#3DB540"/>
<path d="M102.747 70.6682C102.747 70.6682 103.821 69.85 104.777 69.8086L112.519 68.0641L116.696 51.3055L116.935 56.8067L117.404 67.6371C117.586 67.6292 117.765 67.6215 117.94 67.5949C121.842 67.1433 123.262 70.5764 123.088 66.6536C122.913 62.6016 122.241 47.3087 122.236 47.1901C122.101 44.0734 119.47 41.4781 116.354 41.6132L107.139 42.0126C104.077 42.1453 101.734 44.8631 101.782 47.9131L102.747 70.6682Z" fill="#FDDD51"/>
<path d="M103.346 58.8856C103.504 62.5456 105.897 65.2544 109.839 65.0836L117.315 64.7595L116.71 50.79C116.273 48.3821 114.685 47.7776 112.861 47.8566L105.895 48.1585C105.5 48.1754 105.112 48.2701 104.753 48.437C104.395 48.6039 104.073 48.8399 103.805 49.1314C103.538 49.4229 103.331 49.7643 103.196 50.1359C103.06 50.5076 103 50.9023 103.017 51.2974L103.346 58.8856Z" fill="#FFC49D"/>
<path d="M107.986 59.2183L105.353 59.3325C105.17 59.3404 104.999 59.4204 104.875 59.555C104.752 59.6895 104.687 59.8676 104.695 60.05C104.703 60.2323 104.783 60.4041 104.917 60.5275C105.052 60.6508 105.23 60.7157 105.412 60.7078L108.046 60.5936C108.228 60.5857 108.4 60.5057 108.524 60.3712C108.647 60.2366 108.712 60.0586 108.704 59.8762C108.696 59.6938 108.616 59.522 108.481 59.3987C108.347 59.2753 108.169 59.2104 107.986 59.2183Z" fill="#E37B7E"/>
<path d="M117.319 64.8075C117.084 59.3803 116.758 51.8557 116.755 51.7972L120.348 55.2205L120.906 68.0933C119.995 68.1328 119.105 67.8089 118.433 67.1928C117.76 66.5767 117.36 65.7187 117.319 64.8075Z" fill="#FDDD51"/>
<path d="M120.301 47.5686C120.416 50.2263 118.573 54.1574 118.573 54.1574L116.743 54.216C114.381 54.293 112.083 53.4349 110.349 51.828C108.616 50.2211 107.586 47.9952 107.484 45.6336C107.484 45.6336 112.621 43.0789 115.279 42.9637C116.555 42.9083 117.802 43.3624 118.744 44.226C119.685 45.0896 120.246 46.2919 120.301 47.5686Z" fill="#FDDD51"/>
<path d="M68.5951 78.163L66.1829 78.0067L63.2196 152.919L65.6318 153.075L68.5951 78.163Z" fill="#CA863F"/>
<path d="M95.6834 45.1414L44.0376 41.7963L42.5912 78.3599L94.237 81.7051L95.6834 45.1414Z" fill="#FF7F0F"/>
<path d="M73.6082 59.0262L71.5812 73.6312L63.7953 72.3803C59.6884 71.7205 57.7931 68.417 58.4055 64.6055L59.6043 57.1436L73.6082 59.0262Z" fill="#FFC49D"/>
<path d="M73.705 59.0422L73.6351 59.031C73.6931 56.4527 72.1836 55.4921 70.2841 55.1869L63.3915 54.0795C62.98 54.0132 62.5595 54.0286 62.154 54.1249C61.7485 54.2211 61.366 54.3964 61.0282 54.6406C60.6905 54.8849 60.4043 55.1932 60.1858 55.5482C59.9674 55.9031 59.821 56.2976 59.7551 56.7092L58.5615 64.1388L58.5794 64.1417L58.5031 64.6161C57.8908 68.4277 59.786 71.7312 63.8911 72.3907L71.6771 73.6416L73.705 59.0422Z" fill="#FFC49D"/>
<path d="M64.2604 67.9651L61.5177 67.5245C61.2566 67.4825 61.0228 67.3385 60.8678 67.1242C60.7128 66.9099 60.6493 66.6428 60.6913 66.3816C60.7332 66.1205 60.8772 65.8867 61.0915 65.7317C61.3058 65.5767 61.573 65.5132 61.8341 65.5552L64.5768 65.9958C64.838 66.0378 65.0718 66.1818 65.2267 66.3961C65.3817 66.6104 65.4452 66.8775 65.4033 67.1387C65.3613 67.3998 65.2174 67.6336 65.003 67.7886C64.7887 67.9436 64.5216 68.0071 64.2604 67.9651Z" fill="#E2352D"/>
<path d="M58.8295 61.967L73.4718 59.5556L72.5514 65.2845L70.7393 76.5633C70.9273 76.5935 71.1135 76.6234 71.301 76.6333C75.4247 76.9947 79.0956 74.0125 79.7484 69.9265C80.4261 65.7086 81.8728 56.6355 81.8926 56.5119C82.4141 53.2662 80.2509 50.0298 77.0052 49.5083L65.4668 47.6545C62.2783 47.1423 59.2831 49.4507 58.6839 52.6087L56.9977 62.9895C56.9214 63.4643 57.0369 63.9499 57.3187 64.3396C57.6005 64.7293 58.0255 64.9911 58.5003 65.0674L58.8295 61.967Z" fill="#662E00"/>
<path d="M64.2604 67.9651L61.5177 67.5245C61.2566 67.4825 61.0228 67.3385 60.8678 67.1242C60.7128 66.9099 60.6493 66.6428 60.6913 66.3816C60.7332 66.1205 60.8772 65.8867 61.0915 65.7317C61.3058 65.5767 61.573 65.5132 61.8341 65.5552L64.5768 65.9958C64.838 66.0378 65.0718 66.1818 65.2267 66.3961C65.3817 66.6104 65.4452 66.8775 65.4033 67.1387C65.3613 67.3998 65.2174 67.6336 65.003 67.7886C64.7887 67.9436 64.5216 68.0071 64.2604 67.9651Z" fill="#E2352D"/>
<path d="M69.2132 63.0858C69.3297 62.3746 69.6544 61.7138 70.1462 61.1871C70.6381 60.6604 71.2751 60.2913 71.9767 60.1266C72.6783 59.9618 73.413 60.0087 74.0879 60.2615C74.7629 60.5142 75.3477 60.9613 75.7686 61.5463C76.1894 62.1313 76.4274 62.828 76.4524 63.5483C76.4774 64.2685 76.2883 64.98 75.909 65.5928C75.5297 66.2056 74.9772 66.6922 74.3215 66.9911C73.6657 67.29 72.936 67.3877 72.2247 67.272C71.7517 67.1957 71.2983 67.0269 70.8907 66.775C70.4832 66.5231 70.1293 66.1933 69.8495 65.8043C69.5697 65.4154 69.3695 64.975 69.2603 64.5085C69.1511 64.042 69.1351 63.5585 69.2132 63.0858Z" fill="#FFC49D"/>
<path d="M73.4356 60.1008C73.9822 56.6993 72.3357 55.5165 70.1873 55.1714L63.3019 54.0651C62.471 53.9316 61.6211 54.1337 60.9391 54.6268C60.2572 55.12 59.7991 55.8638 59.6656 56.6948L58.3547 65.0367L58.8265 65.5863L69.5506 64.0495L73.4356 60.1008Z" fill="#FFC49D"/>
<path d="M62.6849 104.839L60.2987 105.052L64.685 150.501L67.0712 150.289L62.6849 104.839Z" fill="#CA863F"/>
<path d="M84.774 67.8744L33.6854 72.4241L37.2153 109L88.3038 104.45L84.774 67.8744Z" fill="#BC2C22"/>
<path d="M52.9926 75.3816C51.8343 76.8063 51.6585 78.8239 52.3979 80.6928L52.5478 80.5473C52.8392 81.1472 53.2919 81.6542 53.8551 82.0114C54.4184 82.3686 55.0699 82.562 55.7368 82.5699L60.5072 82.6138L60.4818 85.3772C60.4542 88.3859 61.5391 91.0058 64.5547 91.0335L65.9245 89.894C67.3769 89.9032 68.7739 89.3374 69.8105 88.32C70.8471 87.3026 71.439 85.9164 71.4569 84.4641L71.4884 81.0357C71.4976 79.5829 70.9316 78.1854 69.9139 77.1485C68.8962 76.1116 67.5095 75.5195 66.0567 75.5016L52.9926 75.3816Z" fill="#BFB09D"/>
<path d="M65.7822 78.8728L52.0203 78.7464L52.0201 78.7671C51.3198 78.8416 50.6713 79.1709 50.1981 79.6924C49.7248 80.2138 49.4597 80.8911 49.4532 81.5953L49.4289 84.2378C49.4249 84.6815 49.5238 85.12 49.718 85.5189C49.9121 85.9178 50.1962 86.2663 50.5478 86.5368L50.4637 95.6993L55.6094 99.6382L63.961 101.696L68.1217 101.734L68.3033 81.9637L65.7822 78.8728Z" fill="#FFC49D"/>
<path d="M67.4559 78.511C64.8651 78.4872 62.7086 81.0256 62.54 83.5873L62.4863 89.4303L69.0845 93.0111C69.0845 93.0111 69.9568 78.534 67.4559 78.511Z" fill="#BFB09D"/>
<path d="M50.4761 94.344L53.8369 92.7045L50.5478 86.5372L50.4761 94.344Z" fill="#FFC49D"/>
<path d="M67.2829 86.6125L47.4396 86.4302L47.4285 87.6392L67.2718 87.8215L67.2829 86.6125Z" fill="#333333"/>
<path d="M47.4396 86.4302L47.4282 87.6737C47.4206 88.4983 47.7409 89.292 48.3186 89.8804C48.8962 90.4688 49.684 90.8036 50.5085 90.8112C51.333 90.8187 52.1268 90.4985 52.7152 89.9208C53.3036 89.3431 53.6384 88.5554 53.6459 87.7309L53.6574 86.4873L47.4396 86.4302ZM52.4369 87.7197C52.4323 88.2236 52.2277 88.705 51.8681 89.058C51.5086 89.4111 51.0235 89.6068 50.5196 89.6022C50.0157 89.5975 49.5343 89.3929 49.1813 89.0334C48.8283 88.6738 48.6326 88.1887 48.6372 87.6848L48.6375 87.6503L52.4372 87.6852L52.4369 87.7197Z" fill="#333333"/>
<path d="M52.9787 86.4817L52.9672 87.7252C52.9597 88.5498 53.2799 89.3435 53.8576 89.9319C54.4353 90.5203 55.223 90.8551 56.0476 90.8627C56.8721 90.8703 57.6658 90.55 58.2542 89.9723C58.8426 89.3946 59.1774 88.6069 59.185 87.7824L59.1964 86.5388L52.9787 86.4817ZM57.976 87.7713C57.9714 88.2751 57.7668 88.7565 57.4072 89.1096C57.0476 89.4626 56.5625 89.6583 56.0587 89.6537C55.5548 89.649 55.0734 89.4444 54.7204 89.0849C54.3673 88.7253 54.1716 88.2402 54.1763 87.7363L54.1766 87.7018L57.9763 87.7367L57.976 87.7713Z" fill="#333333"/>
<path d="M64.8926 89.9727C64.8989 89.2603 65.1162 88.5658 65.5172 87.977C65.9182 87.3881 66.4849 86.9315 67.1455 86.6647C67.8061 86.398 68.5309 86.3332 69.2284 86.4785C69.9258 86.6238 70.5644 86.9727 71.0636 87.4811C71.5627 87.9895 71.8998 88.6344 72.0322 89.3344C72.1647 90.0344 72.0866 90.7579 71.8078 91.4135C71.529 92.0691 71.062 92.6273 70.4659 93.0174C69.8698 93.4075 69.1713 93.6121 68.459 93.6052C67.5045 93.5959 66.5927 93.2082 65.924 92.5271C65.2553 91.8459 64.8843 90.9272 64.8926 89.9727Z" fill="#FFC49D"/>
<path d="M62.4776 89.4312L62.4466 92.806L57.7253 94.9442C57.3913 94.2775 56.8797 93.7158 56.247 93.3211C55.6143 92.9264 54.8849 92.714 54.1392 92.7072L50.4915 92.6737L50.4657 95.4786C50.4545 97.0909 51.0813 98.6422 52.2094 99.7942C53.3375 100.946 54.8754 101.605 56.4876 101.628L65.7227 101.713L65.8524 87.5915L62.4776 89.4312Z" fill="#BFB09D"/>
<path d="M55.3203 95.3831L52.676 95.3588C52.4928 95.3571 52.3164 95.4283 52.1857 95.5566C52.0549 95.685 51.9805 95.8601 51.9788 96.0433C51.9771 96.2265 52.0483 96.4029 52.1767 96.5337C52.3051 96.6644 52.4801 96.7388 52.6633 96.7405L55.3076 96.7648C55.4908 96.7665 55.6672 96.6953 55.798 96.5669C55.9287 96.4386 56.0031 96.2635 56.0048 96.0803C56.0065 95.897 55.9353 95.7206 55.807 95.5899C55.6786 95.4591 55.5035 95.3847 55.3203 95.3831Z" fill="#9C9081"/>
<path d="M94.8987 104.114V124.283H83.8145H83.7155C79.1829 124.283 76.5504 121.037 76.5504 116.821V104.114H94.8987Z" fill="#894100"/>
<path d="M105.213 111.937C106.607 111.056 107.536 109.509 107.536 107.727C107.536 105.24 105.717 103.164 103.336 102.832V99.1697C103.336 96.3303 101.034 94 98.2278 94C96.0412 94 94.1642 95.4099 93.4482 97.3877H83.3471C79.8446 97.3877 77 100.462 77 104.026C77 107.57 79.8446 110.449 83.3471 110.547H95.035L95.3252 112.29C95.3252 113.837 93.7965 114.052 94.8801 113.935V117.479C94.9382 121.102 97.8408 124 101.44 124C105.059 124 108 121.024 108 117.362C108 115.11 106.897 113.132 105.213 111.937Z" fill="#000505"/>
<path d="M91 114.49C91 112.553 92.5623 111 94.5101 111C96.458 111 98 112.573 98 114.49C98 116.427 96.458 118 94.5101 118C92.5623 118 91 116.427 91 114.49Z" fill="#894100"/>
<path d="M123.327 103.827L120.961 103.365L112.212 153.685L114.578 154.147L123.327 103.827Z" fill="#CA863F"/>
<path d="M155.9 74.8869L105.245 65.0021L98.9659 101.115L149.621 111L155.9 74.8869Z" fill="#F9DE6A"/>
<path d="M128.182 76.4336L122.187 74.9678C120.965 74.7149 119.695 74.9648 118.643 75.665C117.591 76.3652 116.839 77.4613 116.546 78.7229L114.909 85.8515C114.616 87.1423 114.826 88.4993 115.493 89.6259C116.16 90.7524 117.229 91.5568 118.467 91.8633L118.761 91.936C121.334 92.5659 124.632 91.0575 125.247 88.3813L128.182 76.4336Z" fill="#CA863F"/>
<path d="M134.574 89.9958L131.584 89.2632L128.722 101.753L133.678 99.9923L134.574 89.9958Z" fill="#14142B"/>
<path d="M126.627 83.0576L126.625 83.1033L118.241 81.0537L115.675 92.238C114.885 95.6839 116.972 98.8883 120.246 99.6877L124.374 100.699L128.721 101.763L132.668 84.547L126.627 83.0576Z" fill="#F5C5A2"/>
<path d="M127.664 92.3846C128.062 90.6457 130.283 87.1958 131.95 87.6037C133.618 88.0115 134.106 92.1245 133.707 93.8741C133.516 94.7086 133.014 95.4309 132.312 95.8823C131.61 96.3337 130.765 96.4771 129.963 96.281C129.162 96.0849 128.47 95.5653 128.038 94.8366C127.607 94.1079 127.472 93.2298 127.663 92.3953L127.664 92.3846Z" fill="#F5C5A2"/>
<path d="M139.075 80.0608C138.417 79.274 137.538 78.7232 136.561 78.4863L124.637 75.5712C122.064 74.9413 118.393 76.3599 117.776 79.0225L116.3 85.5261L123.876 87.3769C126.08 87.9172 128.071 86.467 128.803 84.2321C131.543 87.246 133.046 91.2658 132.049 95.6224C131.516 97.9459 130.371 100.071 128.742 101.759C129.19 101.879 135.684 103.85 137.056 97.8689L140.142 84.4992L140.181 84.3314C140.352 83.5786 140.34 82.7941 140.147 82.0486C139.954 81.3031 139.585 80.6199 139.075 80.0608Z" fill="#CA863F"/>
<path d="M121.343 95.3603L118.691 94.6999C118.566 94.6692 118.448 94.6131 118.344 94.5349C118.24 94.4568 118.151 94.3579 118.084 94.2441C118.017 94.1303 117.972 94.0038 117.952 93.8717C117.931 93.7396 117.936 93.6046 117.966 93.4743C117.996 93.344 118.051 93.2211 118.126 93.1125C118.202 93.0039 118.297 92.9118 118.407 92.8413C118.516 92.7709 118.638 92.7236 118.765 92.7021C118.892 92.6806 119.022 92.6853 119.147 92.716L121.799 93.3765C121.929 93.402 122.052 93.4547 122.162 93.5314C122.271 93.608 122.365 93.707 122.437 93.8224C122.508 93.9378 122.557 94.0672 122.579 94.2028C122.601 94.3384 122.597 94.4774 122.566 94.6113C122.535 94.7452 122.478 94.8714 122.399 94.9822C122.321 95.0929 122.221 95.186 122.107 95.2557C121.992 95.3255 121.866 95.3705 121.734 95.388C121.603 95.4055 121.47 95.3952 121.343 95.3576L121.343 95.3603Z" fill="#CF4538"/>
</svg>
