<svg width="180" height="180" viewBox="0 0 180 180" fill="none" xmlns="http://www.w3.org/2000/svg">
<g clip-path="url(#clip0)">
<rect width="180" height="180" fill="white"/>
<path d="M17.9515 45.6351H35.1301C36.6753 47.3166 37.6297 49.5435 37.6751 52.043V64.3589C37.6751 65.9949 37.1752 67.4492 36.3572 68.5854C35.0392 70.4941 32.8124 71.7211 30.222 71.7211H16.1791V52.1794C17.0426 51.9976 17.9515 45.6351 17.9515 45.6351Z" fill="#F5C5A2"/>
<path d="M14.2704 45.4988L11.3619 44.7717C13.4069 41.7268 17.7698 40.2725 21.5418 41.2269C24.3594 41.9086 26.4954 43.8628 27.5861 46.3623" fill="#FAE8CE"/>
<path d="M15.4975 44.2717C16.4518 40.4997 19.7694 39.3636 23.4051 39L21.2237 45.5897" fill="#FAE8CE"/>
<path d="M37.4479 45.4988L40.3564 44.7717C38.3113 41.7268 33.9485 40.2725 30.1765 41.2269C27.3589 41.9086 25.2229 43.8628 24.1322 46.3623" fill="#FAE8CE"/>
<path d="M31.3581 40.9088H19.9966C16.8154 40.9088 14.225 43.4992 14.225 46.6804V56.7694H31.3581C34.8575 56.7694 37.7206 53.9063 37.7206 50.407V47.2712C37.7206 43.7719 34.8575 40.9088 31.3581 40.9088Z" fill="#FAE8CE"/>
<path d="M20.2693 60.4051C20.2693 58.1328 18.4514 56.3149 16.1791 56.3149C13.9068 56.3149 12.089 58.1328 12.089 60.4051C12.089 62.6774 13.9523 64.4952 16.1791 64.4952C18.4514 64.4952 20.2693 62.6319 20.2693 60.4051Z" fill="#F5C5A2"/>
<path d="M30.9037 64.6315H34.0395C34.4939 64.6315 34.8575 64.9951 34.8575 65.4496C34.8575 65.904 34.4939 66.2676 34.0395 66.2676H30.9037C30.4492 66.2676 30.0857 65.904 30.0857 65.4496C30.0857 64.9951 30.4492 64.6315 30.9037 64.6315Z" fill="#C5957A"/>
<path d="M11.1347 97.08L7.36264 106.76H16.4518V97.2164L11.1347 97.08Z" fill="#14142B"/>
<path d="M54.4901 74.0389C52.536 72.0847 49.3547 72.0847 47.4006 74.0389L46.4008 75.0387L53.3994 82.0828L54.4901 81.1285C56.4443 79.1743 56.4443 75.9931 54.4901 74.0389Z" fill="#F5C5A2"/>
<path d="M30.5855 73.3117C32.5397 71.3575 35.6755 71.3575 37.6297 73.3117L42.8105 78.538L43.8558 77.4927L50.8999 84.5369L46.4007 88.9451C46.3553 88.9906 46.3553 89.036 46.3099 89.036C44.3557 90.9902 41.2199 90.9902 39.2657 89.036L30.5855 80.3558C28.6314 78.4017 28.6314 75.2659 30.5855 73.3117Z" fill="#14142B"/>
<path d="M38.4477 95.8984V122.03H39.0385C40.5837 122.03 41.8107 123.257 41.8107 124.802C41.8107 126.347 40.5837 127.574 39.0385 127.574H28.1769L28.2223 109.623H24.314V122.075H24.3594H25.0411C26.5863 122.075 27.8133 123.302 27.8133 124.847C27.8133 126.393 26.5863 127.62 25.0411 127.62H14.1795V95.9438H38.4477V95.8984Z" fill="#14142B"/>
<path d="M33.4032 71.7211H26.9044L23.0415 66.4494H16.1792V73.2663H15.9065V92.2627C16.4519 92.6263 17.4062 93.6716 18.1788 95.9439H38.4477L37.3116 76.6748C37.3116 73.948 36.1754 71.7211 33.4032 71.7211Z" fill="white"/>
<path d="M46.3553 75.0387L43.8558 77.4928L50.8999 84.5369L53.3994 82.0828L46.3553 75.0387Z" fill="white"/>
<path d="M2.00001 89.3542C2.00001 88.4453 2.22724 87.5818 2.72714 86.7638L9.90761 74.1752C10.8165 72.6301 12.4526 71.7666 14.1341 71.7666H19.9057C22.6325 71.7666 24.8593 73.948 24.8593 76.6748C24.8593 76.7202 24.8593 76.7202 24.8593 76.7657V89.2633C24.8593 92.9444 21.8145 95.9893 18.1333 95.9893C18.1333 95.9893 17.5425 97.4436 16.27 100.216L16.77 101.261C14.6794 102.988 13.8614 104.079 12.1345 101.988L3.22705 92.6718C2.36357 91.6265 2.00001 90.4904 2.00001 89.3542Z" fill="#14142B"/>
<path d="M34.2212 103.579V76.3112C34.2212 73.7662 32.1762 71.7211 29.6312 71.7211H33.8122C36.3572 71.7211 38.4932 73.7662 38.4932 76.3112V103.579H34.2212Z" fill="#14142B"/>
<path d="M26.9044 71.7211H30.6764V95.9439H26.9044V71.7211Z" fill="#3882C0"/>
<rect x="7" y="127" width="35" height="53" fill="#CA863F"/>
<path d="M122.471 115.871V133.064H111.876H111.79C107.877 133.064 105.604 130.261 105.604 126.621V115.769L122.471 115.871Z" fill="#F3B892"/>
<path d="M121.207 109.77H114.798L116.576 107.993C113.79 106.694 110.03 107.532 107.74 109.822C106.031 111.531 105.313 113.872 105.604 116.111C105.655 116.64 105.775 117.136 105.963 117.615C106.048 117.854 106.151 118.093 106.253 118.332L106.288 118.298C107.227 120.041 109.073 121.221 111.175 121.289H122.369C122.506 123.186 123.138 124.553 125.24 124.553V113.889C125.377 111.599 123.514 109.77 121.207 109.77Z" fill="#010505"/>
<path d="M119.242 124.348C119.242 122.673 120.592 121.306 122.266 121.306C123.941 121.306 125.308 122.673 125.308 124.348C125.308 126.023 123.941 127.39 122.266 127.39C120.592 127.39 119.242 126.023 119.242 124.348Z" fill="#F3B892"/>
<path d="M106.612 150.085C106.612 154.084 106.749 157.656 107.364 160.903L110.338 176.352H116.866V160.715H116.9L106.612 150.085Z" fill="#4A3F3F"/>
<path d="M126.282 160.732V159.792C126.282 152.375 120.404 149.948 120.404 149.948L106.612 149.965C106.612 155.827 111.141 160.732 116.746 160.732H116.781L119.754 176.369H126.282V160.732Z" fill="#4A3F3F"/>
<path d="M116.866 181H106.151L110.338 176.369H116.866V181Z" fill="#E1E1E1"/>
<path d="M126.282 181H115.55L119.771 176.369H126.282V181Z" fill="#E1E1E1"/>
<path d="M122.933 133.063H110.252C107.997 133.063 106.185 134.909 106.151 137.165V149.862H119.942L125.736 141.283H122.933V133.063V133.063Z" fill="#E1E1E1"/>
<path d="M122.83 133.063H109.705V139.079H122.83V133.063Z" fill="#F3B892"/>
<path d="M110.081 137.165C110.099 134.909 111.91 133.063 114.183 133.063H110.252C107.997 133.063 106.185 134.909 106.151 137.165V156.169C108.321 156.169 110.081 154.408 110.081 152.238V137.165Z" fill="#BC2C22"/>
<path d="M129.273 137.148C129.273 135.165 127.632 133.063 125.65 133.063C125.633 133.063 125.616 133.063 125.582 133.063C125.548 133.063 125.513 133.063 125.462 133.063H124.232H121.053C118.455 133.063 116.353 135.165 116.353 137.763V151.418C116.353 154.118 118.541 156.305 121.241 156.305H127.051V149.845H129.273V137.148Z" fill="#BC2C22"/>
<path d="M111.94 106.776L109.938 106.637L106.872 146.865L108.874 147.003L111.94 106.776Z" fill="#CA863F"/>
<path d="M136.331 81.5933L93.4757 78.6352L91.1367 109.325L133.992 112.283L136.331 81.5933Z" fill="#3882C0"/>
<path d="M119.357 87.5508L106.238 87.4684C104.99 88.8458 104.268 90.6479 104.21 92.5294V92.5294L104.031 102.317C103.999 103.524 104.33 104.707 104.977 105.699C105.496 106.475 106.188 107.106 106.996 107.541C107.803 107.976 108.701 108.2 109.614 108.196L120.332 108.262L120.621 92.7482C119.961 92.5939 119.36 87.5449 119.36 87.5449" fill="#F5C5A2"/>
<path d="M122.153 87.4462L124.384 86.8799C122.866 84.452 119.563 83.2813 116.682 84.0127C115.661 84.2703 114.708 84.7683 113.896 85.4682C113.084 86.168 112.435 87.0511 111.998 88.049" fill="#FAE8CE"/>
<path d="M121.234 86.4836C120.572 83.4901 118.049 82.5795 115.275 82.2633L116.841 87.4911" fill="#FAE8CE"/>
<path d="M104.507 87.3368L102.29 86.7412C103.897 84.3345 107.242 83.205 110.096 83.9725C111.107 84.2438 112.042 84.7549 112.828 85.4663C113.614 86.1778 114.23 87.0704 114.628 88.075" fill="#FAE8CE"/>
<path d="M109.205 83.7499L117.873 83.8047C119.04 83.8111 120.15 84.2997 120.96 85.1633C121.771 86.0269 122.215 87.1948 122.195 88.4106L122.045 96.4245L108.973 96.3431C108.337 96.3394 107.709 96.205 107.126 95.9478C106.543 95.6905 106.016 95.3154 105.575 94.8438C105.133 94.3722 104.787 93.8134 104.555 93.1994C104.323 92.5853 104.21 91.928 104.222 91.265L104.27 88.758C104.297 87.421 104.831 86.1428 105.757 85.2039C106.682 84.2649 107.922 83.742 109.205 83.7499Z" fill="#FAE8CE"/>
<path d="M117.369 99.2515C117.382 98.608 117.579 97.9806 117.933 97.4487C118.287 96.9167 118.783 96.504 119.359 96.2628C119.934 96.0216 120.563 95.9627 121.166 96.0936C121.769 96.2244 122.319 96.5391 122.746 96.9979C123.173 97.4567 123.458 98.039 123.565 98.6711C123.673 99.3032 123.597 99.9569 123.349 100.549C123.1 101.142 122.69 101.646 122.169 102C121.649 102.353 121.041 102.538 120.424 102.533C120.014 102.53 119.609 102.443 119.233 102.277C118.857 102.11 118.518 101.868 118.234 101.563C117.95 101.258 117.727 100.897 117.579 100.5C117.431 100.103 117.359 99.6791 117.369 99.2515V99.2515Z" fill="#F5C5A2"/>
<path d="M109.191 102.568L106.81 102.553C106.649 102.56 106.497 102.63 106.383 102.75C106.27 102.871 106.206 103.031 106.203 103.198C106.2 103.365 106.259 103.527 106.368 103.648C106.477 103.769 106.627 103.841 106.787 103.849L109.166 103.864C109.326 103.857 109.478 103.786 109.591 103.666C109.703 103.546 109.768 103.387 109.771 103.22C109.774 103.053 109.716 102.893 109.608 102.771C109.5 102.65 109.35 102.577 109.191 102.568" fill="#C5957A"/>
<path d="M109.329 135.676C107.414 135.163 105.447 136.299 104.934 138.214C104.421 140.129 105.548 142.129 107.462 142.642L114.214 144.451L116.081 137.485L109.329 135.676Z" fill="#F3B892"/>
<rect x="115.68" y="137.456" width="11.7365" height="7.12817" transform="rotate(15 115.68 137.456)" fill="#BC2C22"/>
<path d="M62.216 156.962V174.794H71.9532V162.842H75.6954V174.794H85.4517V156.962H62.216Z" fill="#13376E"/>
<path d="M58.8748 177.448C58.8748 178.918 60.0586 180.102 61.5287 180.102H71.9533V174.794H61.5287C60.0586 174.794 58.8748 175.978 58.8748 177.448Z" fill="#010505"/>
<path d="M75.0081 174.794C73.538 174.794 72.3542 175.978 72.3542 177.448C72.3542 178.918 73.538 180.102 75.0081 180.102H85.4327V174.794H75.0081V174.794Z" fill="#010505"/>
<path d="M61.2423 109.612V123.874C61.2423 127.769 64.4117 131.149 68.2875 131.149H81.8241V109.612H61.2423Z" fill="#F3B892"/>
<path d="M81.9005 109.612C81.8814 107.035 79.7812 104.591 77.2037 104.591H66.3209C63.7816 104.591 61.3569 107.111 61.2423 109.612H74.2444L74.3398 113.564C74.3398 117.746 77.7383 121.144 81.9196 121.144L81.9005 109.612Z" fill="#804416"/>
<path d="M78.4447 122.06C78.4447 120.189 79.953 118.662 81.8241 118.662C83.6952 118.662 85.2226 120.189 85.2226 122.06C85.2226 123.932 83.6952 125.459 81.8241 125.459C79.953 125.478 78.4447 123.951 78.4447 122.06Z" fill="#F3B892"/>
<path d="M85.4517 131.149H67.0846C64.3926 131.206 62.216 133.401 62.216 136.113V139.492V145.143V150.165V161.487H66.7028C69.1275 161.238 71.0177 159.215 71.0559 156.733C71.0941 159.215 73.0033 161.258 75.4281 161.487H85.4517V158.413L89.9003 156.981V135.463C89.8812 133.001 87.8956 131.187 85.4517 131.149Z" fill="#4A3F3F"/>
<path d="M81.9959 125.898H75.6763L71.7814 131.225H81.9959V125.898Z" fill="#4A3F3F"/>
<path d="M70.5595 141.611C71.382 141.611 72.0487 140.945 72.0487 140.122C72.0487 139.3 71.382 138.633 70.5595 138.633C69.737 138.633 69.0703 139.3 69.0703 140.122C69.0703 140.945 69.737 141.611 70.5595 141.611Z" fill="white"/>
<path d="M70.5595 150.776C71.382 150.776 72.0487 150.109 72.0487 149.287C72.0487 148.464 71.382 147.797 70.5595 147.797C69.737 147.797 69.0703 148.464 69.0703 149.287C69.0703 150.109 69.737 150.776 70.5595 150.776Z" fill="white"/>
<path d="M81.9859 95.4338L80.0763 94.8179L67.4191 133.125L69.3287 133.741L81.9859 95.4338Z" fill="#CA863F"/>
<path d="M111.721 76.862L70.837 63.6769L61.1807 92.902L102.065 106.087L111.721 76.862Z" fill="#3882C0"/>
<path d="M93.812 78.5593L81.0984 75.322C79.5558 76.3585 78.4212 77.934 77.9124 79.7462V79.7462L75.3821 89.2032C75.0608 90.3671 75.0973 91.5941 75.4865 92.7129C75.8039 93.5909 76.324 94.3708 77.0028 94.9869C77.6816 95.603 78.4992 96.0371 79.3868 96.2529L89.7735 98.8967L93.7884 83.9082C93.1849 83.5996 93.8163 78.5542 93.8163 78.5542" fill="#F5C5A2"/>
<path d="M96.5509 79.1306L98.8523 79.1178C97.9635 76.396 95.0398 74.4649 92.0666 74.4812C91.014 74.4856 89.9689 74.7396 89.0123 75.2234C88.0557 75.7073 87.2131 76.4082 86.5497 77.2718" fill="#FAE8CE"/>
<path d="M95.8906 77.9751C95.9688 74.9104 93.7391 73.4193 91.1222 72.4447L91.3842 77.8957" fill="#FAE8CE"/>
<path d="M79.4497 74.7775L77.4411 73.6659C79.5806 71.7169 83.0984 71.4254 85.6839 72.8572C86.6005 73.3639 87.3849 74.0851 87.9765 74.9648C88.5682 75.8444 88.9511 76.859 89.0956 77.9299" fill="#FAE8CE"/>
<path d="M84.8727 72.4266L93.2735 74.5662C94.4042 74.8531 95.3642 75.5946 95.9428 76.6278C96.5214 77.661 96.6712 78.9014 96.3594 80.0767L94.2855 87.8191L81.6169 84.5939C81.0003 84.4372 80.4236 84.1558 79.9196 83.7658C79.4155 83.3757 78.9941 82.8848 78.6794 82.3208C78.3647 81.7569 78.1628 81.1312 78.0853 80.4793C78.0078 79.8274 78.0563 79.1622 78.2278 78.5217L78.8776 76.0999C79.2254 74.8087 80.052 73.6967 81.176 73.0081C82.3 72.3194 83.6295 72.1103 84.8727 72.4266Z" fill="#FAE8CE"/>
<path d="M89.0663 89.4375C89.2343 88.8162 89.5757 88.2545 90.0475 87.8234C90.5192 87.3923 91.1002 87.1112 91.7168 87.0156C92.3334 86.92 92.958 87.0141 93.5117 87.2862C94.0654 87.5583 94.5232 87.9961 94.8273 88.5442C95.1315 89.0923 95.2682 89.7261 95.2203 90.3655C95.1724 91.0049 94.942 91.6212 94.5582 92.1364C94.1744 92.6516 93.6545 93.0426 93.0642 93.2601C92.4738 93.4775 91.8396 93.5115 91.2416 93.3579C90.844 93.2565 90.4722 93.0746 90.1475 92.8225C89.8228 92.5705 89.5516 92.2532 89.3494 91.8889C89.1473 91.5246 89.0183 91.1206 88.9697 90.6999C88.9211 90.2792 88.9539 89.8502 89.0663 89.4375V89.4375Z" fill="#F5C5A2"/>
<path d="M80.3304 90.6885L78.0227 90.1009C77.8655 90.0685 77.7003 90.1004 77.5617 90.1898C77.423 90.2793 77.3215 90.4194 77.2785 90.581C77.2354 90.7426 77.2541 90.9132 77.3306 91.0571C77.4071 91.201 77.5355 91.3072 77.689 91.3535L79.9948 91.9403C80.1516 91.9721 80.3162 91.94 80.4543 91.8507C80.5924 91.7614 80.6935 91.6218 80.7367 91.4608C80.7798 91.2998 80.7617 91.1298 80.6861 90.986C80.6104 90.8422 80.4831 90.7357 80.3304 90.6885" fill="#C5957A"/>
<path d="M73.4432 126.866C71.6747 125.098 68.8395 125.098 67.0845 126.853C65.3159 128.621 65.3294 131.47 67.0845 133.225L73.4432 126.866Z" fill="#F3B892"/>
<rect x="78.9897" y="145.214" width="16.9022" height="8.88926" transform="rotate(-135 78.9897 145.214)" fill="#4A3F3F"/>
<path d="M143.644 158.308V175.222H152.879V163.885H156.429V175.222H165.683V158.308H143.644Z" fill="#92B1C3"/>
<path d="M140.475 177.739C140.475 179.134 141.597 180.256 142.992 180.256H152.879V175.222H142.992C141.597 175.222 140.475 176.363 140.475 177.739Z" fill="#010505"/>
<path d="M155.777 175.222C154.383 175.222 153.26 176.345 153.26 177.739C153.26 179.134 154.383 180.256 155.777 180.256H165.665V175.222H155.777V175.222Z" fill="#010505"/>
<path d="M165.683 129.369H148.262C145.708 129.423 143.644 131.506 143.644 134.078V137.283V142.643V147.406V158.145H165.683V147.406L169.902 143.983V133.444C169.884 131.126 168.001 129.405 165.683 129.369Z" fill="#E1E1E1"/>
<path d="M143.644 108.942V122.47C143.644 126.164 146.65 129.369 150.326 129.369H163.166V108.942H143.644Z" fill="#804416"/>
<path d="M163.238 108.942C163.202 106.497 161.228 104.179 158.783 104.179H148.461C146.052 104.179 143.752 106.57 143.644 108.942H155.976L156.067 112.691C156.067 116.657 159.29 119.88 163.256 119.88L163.238 108.942Z" fill="#010505"/>
<path d="M159.96 120.749C159.96 118.974 161.391 117.526 163.166 117.526C164.94 117.526 166.389 118.974 166.389 120.749C166.389 122.524 164.94 123.973 163.166 123.973C161.391 123.991 159.96 122.542 159.96 120.749Z" fill="#804416"/>
<path d="M154.618 102.508L152.616 102.37L149.55 142.597L151.552 142.735L154.618 102.508Z" fill="#CA863F"/>
<path d="M179.009 77.3256L136.154 74.3675L133.815 105.058L176.67 108.016L179.009 77.3256Z" fill="#3882C0"/>
<path d="M162.035 83.2831L148.916 83.2007C147.668 84.5781 146.946 86.3802 146.889 88.2617V88.2617L146.709 98.0497C146.677 99.2567 147.008 100.439 147.655 101.431C148.174 102.207 148.867 102.839 149.674 103.273C150.481 103.708 151.379 103.933 152.292 103.928L163.01 103.995L163.3 88.4805C162.64 88.3262 162.038 83.2772 162.038 83.2772" fill="#F5C5A2"/>
<path d="M164.831 83.1785L167.062 82.6122C165.544 80.1843 162.242 79.0136 159.36 79.745C158.339 80.0026 157.386 80.5006 156.574 81.2005C155.762 81.9003 155.113 82.7834 154.677 83.7813" fill="#FAE8CE"/>
<path d="M163.912 82.2159C163.251 79.2224 160.728 78.3118 157.953 77.9956L159.519 83.2234" fill="#FAE8CE"/>
<path d="M147.185 83.0691L144.968 82.4735C146.575 80.0668 149.92 78.9373 152.774 79.7048C153.785 79.9761 154.72 80.4872 155.506 81.1986C156.292 81.9101 156.908 82.8027 157.306 83.8073" fill="#FAE8CE"/>
<path d="M151.883 79.4822L160.552 79.537C161.718 79.5434 162.828 80.032 163.639 80.8956C164.449 81.7592 164.893 82.9271 164.873 84.1429L164.723 92.1568L151.651 92.0754C151.015 92.0717 150.387 91.9373 149.804 91.6801C149.221 91.4228 148.694 91.0477 148.253 90.5761C147.812 90.1045 147.465 89.5457 147.233 88.9316C147.001 88.3176 146.888 87.6603 146.9 86.9973L146.948 84.4903C146.975 83.1533 147.51 81.8751 148.435 80.9362C149.36 79.9972 150.6 79.4743 151.883 79.4822Z" fill="#FAE8CE"/>
<path d="M160.047 94.9838C160.061 94.3403 160.257 93.7129 160.611 93.181C160.965 92.649 161.461 92.2363 162.037 91.9951C162.612 91.7539 163.241 91.695 163.844 91.8259C164.447 91.9567 164.997 92.2714 165.424 92.7302C165.851 93.189 166.136 93.7713 166.244 94.4034C166.351 95.0355 166.276 95.6892 166.027 96.2816C165.779 96.874 165.368 97.3787 164.847 97.7318C164.327 98.0849 163.719 98.2706 163.102 98.2654C162.692 98.2627 162.287 98.1756 161.911 98.0091C161.535 97.8426 161.196 97.5999 160.912 97.295C160.628 96.9901 160.406 96.6289 160.257 96.2323C160.109 95.8357 160.037 95.4114 160.047 94.9838V94.9838Z" fill="#F5C5A2"/>
<path d="M151.869 98.3004L149.488 98.2855C149.327 98.2919 149.175 98.3625 149.062 98.4827C148.949 98.6029 148.884 98.7634 148.881 98.9306C148.878 99.0978 148.937 99.2588 149.046 99.3801C149.155 99.5014 149.305 99.5736 149.465 99.5816L151.845 99.5962C152.004 99.5893 152.156 99.5185 152.269 99.3986C152.382 99.2787 152.446 99.1189 152.449 98.9523C152.452 98.7856 152.394 98.625 152.286 98.5036C152.178 98.3822 152.029 98.3095 151.869 98.3004" fill="#C5957A"/>
<path d="M157.337 144.904L159.544 136.665C159.544 136.665 150.138 134.126 150.016 134.093C147.724 133.479 145.391 134.841 144.782 137.115C144.168 139.407 145.53 141.74 147.804 142.35C147.926 142.382 157.337 144.904 157.337 144.904Z" fill="#804416"/>
</g>
<defs>
<clipPath id="clip0">
<rect width="180" height="180" fill="white"/>
</clipPath>
</defs>
</svg>
