<svg width="180" height="180" viewBox="0 0 180 180" fill="none" xmlns="http://www.w3.org/2000/svg">
<rect width="180" height="180" fill="white"/>
<path d="M61.4265 40.4576V46.5296H58.111V42.46H56.8368V46.5296H53.5147V40.4576H61.4265Z" fill="#E1E1E1"/>
<path d="M62.5642 47.4333C62.5642 47.9339 62.1611 48.3369 61.6606 48.3369H58.111V46.5296H61.6606C62.1611 46.5296 62.5642 46.9392 62.5642 47.4333Z" fill="#010505"/>
<path d="M57.0708 46.5296C57.5714 46.5296 57.9745 46.9327 57.9745 47.4333C57.9745 47.9339 57.5714 48.3369 57.0708 48.3369H53.5212V46.5296H57.0708Z" fill="#010505"/>
<path d="M53.5147 30.069H59.7687C60.6854 30.0885 61.4265 30.8361 61.4265 31.7592V32.9099V34.8342V36.544V40.3991H53.5147V35.3348L52 35.3153V31.5317C52.0065 30.6996 52.6826 30.082 53.5147 30.069Z" fill="#13376E"/>
<path d="M52.0065 35.3218H55.0685C55.0685 35.3218 55.075 38.8194 55.075 38.8649C55.075 39.7165 54.3859 40.3991 53.5408 40.3991C52.6891 40.3991 52.0065 39.71 52.0065 38.8649C52.0065 38.8194 52.0065 35.3218 52.0065 35.3218Z" fill="#804416"/>
<path d="M54.4054 30.069V22.5537H61.4265V27.5856C61.4265 28.9118 60.3408 30.0625 59.0146 30.0625H54.4054V30.069Z" fill="#804416"/>
<path d="M56.0111 21H57.2853H61.4265V22.5407V22.5538H61.42C61.0039 23.3534 60.1718 23.8995 59.2032 23.8995C58.241 23.8995 57.4089 23.3534 56.9863 22.5538V24.4391C56.9863 25.8563 55.8226 27.0135 54.4054 27.0135V24.4456V22.5603C54.4054 21.6696 55.1205 21 56.0111 21Z" fill="#010505"/>
<path d="M55.5626 26.9745C55.5626 26.3374 55.049 25.8173 54.4119 25.8173C53.7748 25.8173 53.2547 26.3374 53.2547 26.9745C53.2547 27.6116 53.7748 28.1317 54.4119 28.1317C55.0425 28.1382 55.5626 27.6181 55.5626 26.9745Z" fill="#804416"/>
<path d="M19.6672 15.0761V19.2796H22.2578H22.2787C23.2356 19.2796 23.7913 18.5943 23.7913 17.7043V15.0511L19.6672 15.0761Z" fill="#F3B892"/>
<path d="M19.9764 13.5844H21.5433L21.1087 13.1499C21.7898 12.8323 22.7091 13.0371 23.269 13.597C23.6868 14.0148 23.8623 14.5873 23.7913 15.1346C23.7787 15.2642 23.7495 15.3853 23.7035 15.5023C23.6826 15.5608 23.6576 15.6193 23.6325 15.6778L23.6241 15.6695C23.3943 16.0957 22.9431 16.384 22.4291 16.4007H19.6923C19.6588 16.8645 19.5042 17.1988 18.9903 17.1988V14.5914C18.9569 14.0315 19.4123 13.5844 19.9764 13.5844Z" fill="#010505"/>
<path d="M20.4569 17.1486C20.4569 16.7391 20.1268 16.4049 19.7173 16.4049C19.3078 16.4049 18.9736 16.7391 18.9736 17.1486C18.9736 17.5581 19.3078 17.8924 19.7173 17.8924C20.1268 17.8924 20.4569 17.5581 20.4569 17.1486Z" fill="#F3B892"/>
<path d="M23.5448 23.4413C23.5448 24.419 23.5113 25.2923 23.3609 26.0862L22.6339 29.8635H21.0377V26.0402H21.0294L23.5448 23.4413Z" fill="#4A3F3F"/>
<path d="M18.7354 26.0444V25.8146C18.7354 24.0012 20.1728 23.4078 20.1728 23.4078L23.5448 23.412C23.5448 24.8452 22.4375 26.0444 21.067 26.0444H21.0586L20.3316 29.8677H18.7354V26.0444Z" fill="#4A3F3F"/>
<path d="M21.0377 31H23.6576L22.6339 29.8677H21.0377V31Z" fill="#E1E1E1"/>
<path d="M18.7354 31H21.3595L20.3274 29.8677H18.7354V31Z" fill="#E1E1E1"/>
<path d="M19.5544 19.2796H22.6547C23.2063 19.2796 23.6492 19.7309 23.6576 20.2824V23.387H20.2856L18.8691 21.2894H19.5544V19.2796Z" fill="#E1E1E1"/>
<path d="M19.5794 19.2796H22.7885V20.7504H19.5794V19.2796Z" fill="#F3B892"/>
<path d="M22.6965 20.2824C22.6924 19.7309 22.2494 19.2796 21.6937 19.2796H22.6547C23.2063 19.2796 23.6492 19.7309 23.6576 20.2824V24.9288C23.1269 24.9288 22.6965 24.4984 22.6965 23.9678V20.2824Z" fill="#BC2C22"/>
<path d="M18.0042 20.2782C18.0042 19.7935 18.4053 19.2796 18.89 19.2796C18.8942 19.2796 18.8984 19.2796 18.9067 19.2796C18.9151 19.2796 18.9234 19.2796 18.936 19.2796H19.2368H20.014C20.6491 19.2796 21.1631 19.7935 21.1631 20.4287V23.7672C21.1631 24.4274 20.6282 24.9622 19.968 24.9622H18.5474V23.3828H18.0042V20.2782Z" fill="#BC2C22"/>
<path d="M19.7633 25.0959C19.7633 25.5806 19.3705 25.9734 18.8858 25.9734C18.4011 25.9734 18 25.5806 18 25.0959V23.387H19.7633V25.0959Z" fill="#F3B892"/>
<path d="M82.417 33.3697C82.417 31.9004 82.628 30.707 81.1587 30.707H75.6871C74.2177 30.707 73.0243 31.9004 73.0243 33.3697C73.0243 34.8391 74.2177 36.0487 75.6871 36.0487H78.1306C79.6 36.0487 81.9786 34.8391 81.9786 33.3697H82.417Z" fill="#CA863F"/>
<path d="M76.4583 27.8819V36.0974L81.0044 36.0487H81.045C82.9041 36.0487 83.9838 34.7173 83.9838 32.9882V27.8332L76.4583 27.8819Z" fill="#F3B892"/>
<path d="M73.0162 27.752C73.0162 29.2214 74.3963 30.4148 75.8657 30.4554H81.3373C82.8066 30.4148 84 29.2214 84 27.752C84 26.2745 82.8066 25 81.3373 25H75.6708C74.2015 25 73.0162 26.2745 73.0162 27.752Z" fill="#CA863F"/>
<path d="M76.4664 33.2561H73.0162V27.752L76.4664 28.2797V33.2561Z" fill="#CA863F"/>
<path d="M79.0966 48.169C79.2996 48.1609 81.0531 46.5048 81.4184 42.9734L83.9919 44.1587C83.9919 46.0583 83.9269 47.755 83.6347 49.2974L82.2221 56.6362H79.121V49.2081H79.1048V48.169H79.0966Z" fill="#92B1C3"/>
<path d="M74.6399 48.7697V49.2162H79.1698C81.8406 49.2162 83.9838 46.8782 83.9838 44.1018L77.4325 44.0937C77.4406 44.0937 74.6399 45.2465 74.6399 48.7697Z" fill="#92B1C3"/>
<path d="M74.6398 49.2162V56.6443H77.7328L79.1535 49.2162H74.6398Z" fill="#92B1C3"/>
<path d="M82.8959 56.6443C83.5048 56.6443 84 57.1395 84 57.7402C84 58.3491 83.5048 58.8443 82.8959 58.8443H79.1129V56.6443H82.8959Z" fill="#BCAF9E"/>
<path d="M79.1129 56.6443C79.7218 56.6443 80.217 57.1395 80.217 57.7402C80.217 58.3491 79.7218 58.8443 79.1129 58.8443H74.6399V56.6443H79.1129Z" fill="#BCAF9E"/>
<path d="M77.879 31.876C77.879 31.0967 77.2539 30.4716 76.4745 30.4716C75.6952 30.4716 75.0782 31.1048 75.0782 31.876C75.0782 32.6554 75.6952 33.2886 76.4745 33.2886C77.2458 33.2804 77.879 32.6554 77.879 31.876Z" fill="#F3B892"/>
<path d="M73.0081 37.9889C73.0081 37.0472 73.7874 36.0487 74.7291 36.0487C74.7372 36.0487 74.7454 36.0487 74.7616 36.0487C74.7778 36.0487 74.7941 36.0487 74.8184 36.0487H82.0435C83.1151 36.0487 83.9756 36.9255 83.9919 37.9971V44.0937H77.4406L74.6885 39.9454H73.0081V37.9889Z" fill="#14142B"/>
<path d="M76.4258 47.341C76.4258 48.2827 75.6627 49.0458 74.721 49.0458C73.7793 49.0458 73 48.2827 73 47.341V39.9454H76.4258V47.341Z" fill="#F3B892"/>
<path d="M113.775 63.9335V74.0949H108.227V67.2843H106.094V74.0949H100.535V63.9335H113.775Z" fill="#010505"/>
<path d="M115.679 75.6071C115.679 76.4449 115.005 77.1194 114.167 77.1194H108.227V74.0949H114.167C115.005 74.0949 115.679 74.7803 115.679 75.6071Z" fill="#010505"/>
<path d="M106.486 74.0949C107.324 74.0949 107.998 74.7694 107.998 75.6071C107.998 76.4449 107.324 77.1194 106.486 77.1194H100.546V74.0949H106.486Z" fill="#010505"/>
<path d="M100.535 46.5481H111.001C112.535 46.5807 113.775 47.8319 113.775 49.3767V51.3024V54.5227V57.384V63.8355H100.535V55.3604L98 55.3278V48.996C98.0109 47.6034 99.1423 46.5698 100.535 46.5481Z" fill="#E1E1E1"/>
<path d="M98.0109 55.3387H103.135C103.135 55.3387 103.146 61.1918 103.146 61.268C103.146 62.6932 101.993 63.8355 100.578 63.8355C99.1532 63.8355 98.0109 62.6823 98.0109 61.268C98.0109 61.1918 98.0109 55.3387 98.0109 55.3387Z" fill="#F3B892"/>
<path d="M113.775 34.2761V42.403C113.775 44.6224 111.969 46.5481 109.761 46.5481H102.047V34.2761H113.775Z" fill="#F3B892"/>
<path d="M102.004 34.2761C102.025 32.8073 103.211 31.4148 104.68 31.4148H110.881C112.328 31.4148 113.71 32.8509 113.775 34.2761H106.366L106.312 36.5281C106.312 38.9107 104.375 40.8473 101.993 40.8473L102.004 34.2761Z" fill="#804416"/>
<path d="M103.973 41.3695C103.973 40.3033 103.113 39.4329 102.047 39.4329C100.981 39.4329 100.111 40.3033 100.111 41.3695C100.111 42.4357 100.981 43.306 102.047 43.306C103.113 43.3169 103.973 42.4465 103.973 41.3695Z" fill="#F3B892"/>
<path d="M145.711 68.2506C145.711 70.7521 145.626 72.9864 145.241 75.0175L143.381 84.6923H139.297V74.9106H139.265L145.711 68.2506Z" fill="#13376E"/>
<path d="M133.395 74.9107V74.3227C133.395 69.6831 137.072 68.1651 137.072 68.1651L145.699 68.1757C145.699 71.8425 142.866 74.9107 139.36 74.9107H139.338L137.478 84.6923H133.395V74.9107Z" fill="#13376E"/>
<path d="M139.286 87.5894H146L143.381 84.6923H139.286V87.5894Z" fill="#E1E1E1"/>
<path d="M133.396 87.5894H140.11L137.48 84.6923H133.396V87.5894Z" fill="#E1E1E1"/>
<path d="M132.402 46.1964H133.14V46.8165L135.769 47.3189V48.0779H141.948C143.883 50.5153 143.605 52.0868 143.605 54.0217H143.039C143.039 55.9567 139.906 57.5495 137.972 57.5495H135.63C134.315 57.5495 133.172 56.8119 132.562 55.7322C131.899 56.7585 130.756 57.4426 129.451 57.4426H128.714V49.8953C128.714 47.8641 130.371 46.1964 132.402 46.1964Z" fill="#804416"/>
<path d="M135.769 46.7951V57.5495H141.756H141.809C144.268 57.5495 145.679 55.7963 145.679 53.53V46.7309L135.769 46.7951Z" fill="#F3B892"/>
<path d="M132.113 46.624C132.113 48.559 133.043 50.1304 134.978 50.1839H142.194C144.129 50.1304 145.701 48.559 145.701 46.624C145.701 44.6784 144.129 43 142.194 43H135.62C133.685 43 132.113 44.6784 132.113 46.624Z" fill="#804416"/>
<path d="M137.629 52.0547C137.629 50.6008 135.962 49.5425 134.433 50.6863C133.279 52.2151 134.315 53.9148 135.78 53.9148C136.806 53.9041 137.629 53.081 137.629 52.0547Z" fill="#F3B892"/>
<path d="M131.226 60.106C131.226 58.8659 132.252 57.5617 133.492 57.5617C133.503 57.5617 133.514 57.5617 133.535 57.5617C133.556 57.5617 133.578 57.5617 133.61 57.5617H135.63L138.046 57.9572L142.119 57.5617H143.135C144.546 57.5617 145.679 58.7162 145.701 60.1167V68.1451H134.241L134.134 66.5522L131.226 64.0721V60.106Z" fill="#92B1C3"/>
<path d="M142.344 57.5495C141.649 58.7576 140.345 59.57 138.859 59.57C137.362 59.57 136.069 58.7576 135.374 57.5495H142.344Z" fill="#F3B892"/>
<path d="M131.237 62.6595L131.226 59.7945C131.226 58.5544 132.22 57.5282 133.46 57.5175C134.7 57.5175 135.727 58.533 135.737 59.7731L135.748 62.6381L135.769 67.994L131.258 68.0047L131.237 62.6595Z" fill="#92B1C3"/>
<path d="M135.769 70.8483C135.769 72.0884 134.775 73.0933 133.535 73.0933C132.295 73.0933 131.269 72.0991 131.258 70.859L131.247 68.0047L135.759 67.994L135.769 70.8483Z" fill="#F3B892"/>
<path d="M159.338 97.1964V109.605H166.127V101.288H168.718V109.605H175.507V97.1964H159.338Z" fill="#CA863F"/>
<path d="M157 111.452C157 112.475 157.824 113.299 158.847 113.299H166.101V109.605H158.847C157.824 109.605 157 110.442 157 111.452Z" fill="#E1E1E1"/>
<path d="M168.226 109.605C167.203 109.605 166.38 110.429 166.38 111.452C166.38 112.475 167.203 113.299 168.226 113.299H175.48V109.605H168.226Z" fill="#E1E1E1"/>
<path d="M173.408 76.1119V61.2319H159.073V71.2626C159.073 73.9729 161.291 76.1252 163.988 76.1252H173.408V76.1119Z" fill="#F3B892"/>
<path d="M168.147 64.3274V67.5824C168.147 69.7082 166.738 71.236 165.038 71.236H164.467C164.015 70.213 162.979 69.562 161.783 69.562C160.587 69.562 159.524 70.213 159.073 71.236C159.073 74.1589 161.158 76.072 163.842 76.072H167.31C169.542 76.072 171.149 74.2785 171.149 72.0332V64.3274H168.147Z" fill="#804416"/>
<path d="M170.137 57.9769H164.597L166.457 56.914C165.022 55.8511 163.029 55.6651 161.369 56.6217C159.721 57.5783 159.083 59.2523 159.083 61.2319H168.158V64.9652C168.33 67.702 170.642 69.8809 173.432 69.8809V64.6064V61.2186C173.405 59.4117 171.944 57.9769 170.137 57.9769Z" fill="#804416"/>
<path d="M171.149 69.7879C171.149 68.4859 172.199 67.423 173.501 67.423C174.803 67.423 175.866 68.4859 175.866 69.7879C175.866 71.0899 174.803 72.1528 173.501 72.1528C172.199 72.1528 171.149 71.0899 171.149 69.7879Z" fill="#F3B892"/>
<path d="M175.507 92.1212H159.338V97.2362H175.507V92.1212Z" fill="#E1E1E1"/>
<path d="M178.603 79.5263C178.603 78.211 177.752 76.9223 176.583 76.3776V81.4527H159.338V81.931V85.8636V86.8335H176.583H178.603V79.5263Z" fill="#E1E1E1"/>
<path d="M176.581 76.3776C176.235 76.2182 175.85 76.1252 175.451 76.1119H162.737C160.864 76.1517 159.349 77.6796 159.349 79.5662V81.4395H176.594V76.3776H176.581Z" fill="#BC2C22"/>
<path d="M159.338 86.8335V89.3578V92.1212H175.507V86.8335H176.583H159.338Z" fill="#BC2C22"/>
<path d="M172.332 94.0875C172.332 95.8279 173.74 97.2229 175.48 97.2229C177.221 97.2229 178.616 95.8146 178.616 94.0875C178.616 94.0609 178.616 90.4605 178.616 86.8335H172.345C172.332 90.4738 172.332 94.0609 172.332 94.0875Z" fill="#F3B892"/>
<path d="M178.603 79.2473C178.603 77.5202 177.194 76.1119 175.467 76.1119C173.74 76.1119 172.332 77.5202 172.332 79.2473C172.332 79.2473 172.332 80.1242 172.332 81.4528H178.603C178.603 80.1242 178.603 79.2473 178.603 79.2473Z" fill="#E1E1E1"/>
<path d="M172.332 81.4528C172.332 82.8876 172.332 84.8672 172.332 86.8202H178.603C178.603 84.8539 178.603 82.8876 178.603 81.4528H172.332Z" fill="#BC2C22"/>
<path d="M71.6386 63.3389V94.4215H54.7445H54.5936C47.6851 94.4215 43.6728 89.419 43.6728 82.9218V63.3389H71.6386Z" fill="#804416"/>
<path d="M87.5976 75.5401C89.7697 74.1675 91.2177 71.7578 91.2177 68.982C91.2177 65.1081 88.3819 61.8748 84.6712 61.3563V55.6522C84.6712 51.2293 81.0812 47.5994 76.7069 47.5994C73.2979 47.5994 70.3716 49.7956 69.2553 52.8764H53.5076C48.0471 52.8764 43.6124 57.6654 43.6124 63.1864C43.6124 68.7075 48.0471 73.1914 53.5076 73.3439H71.7291L72.1816 76.0587C72.1816 78.4684 69.7984 78.8039 71.4878 78.6209V84.142C71.5783 89.785 76.1035 94.2994 81.7148 94.2994C87.3562 94.2994 91.9418 89.663 91.9418 83.9589C91.9719 80.4816 90.2222 77.4008 87.5976 75.5401Z" fill="#010505"/>
<path d="M66.3592 78.6819C66.3592 75.7537 68.6822 73.4049 71.5783 73.4049C74.4744 73.4049 76.7672 75.7842 76.7672 78.6819C76.7672 81.6102 74.4744 83.9895 71.5783 83.9895C68.7123 83.9895 66.3592 81.6102 66.3592 78.6819Z" fill="#804416"/>
<path d="M64.5792 159.637L65.2429 163.114L67.415 174.766L61.6529 179.372V166.042V166.012V163.114V159.637H47.8963L48.5298 163.114L50.7321 174.827L44.3364 179.952H53.236L57.3087 177.023V179.952H60.9591H61.6529H69.8587L73.9314 177.023V179.952H78.3359V166.012V163.114V159.637H64.5792Z" fill="#010505"/>
<path d="M78.3359 143.684V142.006C78.3359 128.768 67.9581 124.558 67.9581 124.558H43.6124C43.6124 124.65 43.6124 124.467 43.6124 124.558C43.6124 131.696 43.8538 138.193 44.9398 143.989L47.9265 159.637H61.7133V144.416L64.6094 159.637H78.3661L78.3359 143.684Z" fill="#13376E"/>
<path d="M25.9056 109.217C22.6948 110.704 21.2847 114.482 22.7552 117.658C24.2258 120.833 28.0447 122.256 31.2554 120.769L38.6734 117.334L56.388 109.131L51.0381 97.5784L33.3235 105.782L25.9056 109.217Z" fill="#804416"/>
<path d="M43.6124 101.681V124.589H67.9581L78.1851 109.002H84.4299V101.651C84.4299 101.62 84.4299 101.559 84.4299 101.529H43.6124C43.6124 101.59 43.6124 101.651 43.6124 101.681Z" fill="#E1E1E1"/>
<path d="M78.03 94.391C77.9999 94.391 77.9697 94.391 77.9094 94.391C77.849 94.391 77.7887 94.391 77.6982 94.391H50.8485C46.9267 94.391 43.759 97.5938 43.6384 101.529H76.7931C76.7026 98.0513 81.4994 94.391 78.03 94.391Z" fill="#804416"/>
<path d="M84.4299 109.032V100.858C84.4299 97.3192 81.5941 94.4215 78.0946 94.4215C74.5951 94.4215 71.699 97.3497 71.699 100.858V109.032V109.124H84.4299V109.032Z" fill="#E1E1E1"/>
<path d="M71.7292 136.821C71.7292 140.359 74.565 143.226 78.0645 143.226C81.564 143.226 84.4601 140.359 84.4601 136.821V128.646V109.124H71.7292V128.646V136.821Z" fill="#804416"/>
<path d="M55.5675 109.899C56.5689 108.887 56.5785 107.255 55.5888 106.254C54.5992 105.253 52.9852 105.263 51.9837 106.276C50.9823 107.288 50.9728 108.92 51.9624 109.921C52.952 110.921 54.5661 110.912 55.5675 109.899Z" fill="#4A3F3F"/>
<path d="M55.5746 119.26C56.576 118.248 56.5855 116.616 55.5959 115.615C54.6063 114.615 52.9922 114.624 51.9908 115.637C50.9894 116.649 50.9799 118.281 51.9695 119.282C52.9591 120.283 54.5732 120.273 55.5746 119.26Z" fill="#4A3F3F"/>
<path d="M95.1747 136.12V157.884H107.059V143.297H111.626V157.884H123.533V136.12H95.1747Z" fill="#13376E"/>
<path d="M91.0969 161.123C91.0969 162.917 92.5416 164.362 94.3358 164.362H107.059V157.884H94.3358C92.5416 157.884 91.0969 159.329 91.0969 161.123Z" fill="#010505"/>
<path d="M110.787 157.884C108.993 157.884 107.548 159.329 107.548 161.123C107.548 162.917 108.993 164.362 110.787 164.362H123.51V157.884H110.787Z" fill="#010505"/>
<path d="M93.9863 78.3321V95.7385C93.9863 100.492 97.8544 104.616 102.585 104.616H119.106V78.3321H93.9863Z" fill="#F3B892"/>
<path d="M119.199 78.3321C119.175 75.1864 116.612 72.2038 113.467 72.2038H100.185C97.0854 72.2038 94.1261 75.2796 93.9863 78.3321H109.855L109.971 83.1556C109.971 88.2587 114.119 92.4064 119.222 92.4064L119.199 78.3321Z" fill="#CA863F"/>
<path d="M114.981 93.5249C114.981 91.2413 116.822 89.3772 119.106 89.3772C121.389 89.3772 123.253 91.2413 123.253 93.5249C123.253 95.8085 121.389 97.6726 119.106 97.6726C116.822 97.6959 114.981 95.8318 114.981 93.5249Z" fill="#F3B892"/>
<path d="M123.533 104.616H101.117C97.8311 104.686 95.1747 107.366 95.1747 110.675V114.799V121.697V127.825V141.643H100.651C103.61 141.34 105.917 138.87 105.963 135.841C106.01 138.87 108.34 141.363 111.299 141.643H123.533V137.891L128.962 136.144V109.883C128.939 106.877 126.515 104.663 123.533 104.616Z" fill="#4A3F3F"/>
<path d="M117.987 136.144C117.987 139.196 120.434 141.643 123.463 141.643C126.516 141.643 128.962 139.173 128.962 136.144H117.987Z" fill="#F3B892"/>
<path d="M119.315 98.2085H111.602L106.849 104.71H119.315V98.2085Z" fill="#4A3F3F"/>
<path d="M105.358 117.386C106.361 117.386 107.175 116.572 107.175 115.568C107.175 114.564 106.361 113.751 105.358 113.751C104.354 113.751 103.54 114.564 103.54 115.568C103.54 116.572 104.354 117.386 105.358 117.386Z" fill="white"/>
<path d="M105.358 128.571C106.361 128.571 107.175 127.757 107.175 126.753C107.175 125.749 106.361 124.936 105.358 124.936C104.354 124.936 103.54 125.749 103.54 126.753C103.54 127.757 104.354 128.571 105.358 128.571Z" fill="white"/>
<rect x="5.2511" y="108.813" width="19.2741" height="26.9838" transform="rotate(-29.2244 5.2511 108.813)" fill="#E1E1E1"/>
<rect x="7" y="149" width="24" height="31" fill="#4A3F3F"/>
<rect x="3" y="126" width="32" height="23" rx="1" fill="#121212"/>
<path d="M133.766 115.891C133.766 119.752 133.898 123.201 134.492 126.336L137.363 141.252H143.666V126.171H143.715L133.766 115.891Z" fill="#92B1C3"/>
<path d="M152.774 126.172V125.264C152.774 118.103 147.098 115.76 147.098 115.76L133.782 115.776C133.782 121.436 138.154 126.172 143.567 126.172H143.6L146.471 141.27H152.774V126.172Z" fill="#92B1C3"/>
<path d="M143.682 145.725H133.32L137.363 141.253H143.682V145.725Z" fill="#E1E1E1"/>
<path d="M152.774 145.725H142.412L146.471 141.253H152.774V145.725Z" fill="#E1E1E1"/>
<path d="M149.54 99.4573H137.28C135.102 99.4573 133.353 101.239 133.32 103.417V115.677H146.636L152.23 107.394H149.524V99.4573H149.54Z" fill="#E1E1E1"/>
<path d="M149.441 99.4573H136.769V105.265H149.441V99.4573Z" fill="#F3B892"/>
<path d="M137.115 103.417C137.132 101.239 138.881 99.4573 141.075 99.4573H137.28C135.102 99.4573 133.353 101.239 133.32 103.417V121.766C135.416 121.766 137.115 120.067 137.115 117.971V103.417Z" fill="#13376E"/>
<path d="M155.645 103.401C155.645 101.487 154.061 99.4573 152.147 99.4573C152.131 99.4573 152.114 99.4573 152.081 99.4573C152.048 99.4573 152.015 99.4573 151.966 99.4573H150.778H147.725C145.217 99.4573 143.187 101.487 143.187 103.995V117.179C143.187 119.786 145.299 121.898 147.907 121.898H153.517V115.661H155.662V103.401H155.645Z" fill="#13376E"/>
<path d="M148.699 122.41C148.699 124.324 150.25 125.875 152.164 125.875C154.078 125.875 155.662 124.324 155.662 122.41V115.661H148.715V122.41H148.699Z" fill="#F3B892"/>
<path d="M148.699 79.6236V99.4573H139.458H139.376C135.597 99.4573 133.419 96.7677 133.419 93.2531V82.4287L148.699 79.6236Z" fill="#F3B892"/>
<path d="M151.19 86.9664H132V88.2534V89.3094C132 91.4545 133.749 93.2036 135.894 93.2036C137.214 93.2036 138.386 92.5435 139.095 91.537C139.805 92.5435 140.96 93.2036 142.296 93.2036C144.441 93.2036 146.19 91.4545 146.19 89.3094V88.6494H151.207V86.9664H151.19ZM135.894 91.801C134.525 91.801 133.403 90.679 133.403 89.3094V88.6494H138.402V89.3094C138.386 90.6955 137.264 91.801 135.894 91.801ZM144.788 89.3094C144.788 90.679 143.666 91.801 142.296 91.801C140.927 91.801 139.805 90.679 139.805 89.3094V88.6494H144.804V89.3094H144.788Z" fill="#804416"/>
<path d="M154.342 82.5937C154.342 79.6071 151.933 77 148.946 77H138.798C135.861 77 133.502 79.5081 133.419 82.4287V86.9663H140.151C143.517 86.5043 146.108 83.6827 146.224 80.2176V99.4573H154.358C154.358 99.4573 154.342 82.7587 154.342 82.5937Z" fill="#D26F2E"/>
<path d="M41.4799 31.9119V37.3742H38.4973V33.7132H37.3511V37.3742H34.3626V31.9119H41.4799Z" fill="#13376E"/>
<path d="M42.5034 38.1871C42.5034 38.6374 42.1408 39 41.6905 39H38.4973V37.3742H41.6905C42.1408 37.3742 42.5034 37.7426 42.5034 38.1871Z" fill="#010505"/>
<path d="M37.5616 37.3742C38.0119 37.3742 38.3745 37.7368 38.3745 38.1871C38.3745 38.6374 38.0119 39 37.5616 39H34.3685V37.3742H37.5616Z" fill="#010505"/>
<path d="M41.708 17.2913V21.7769C41.708 22.97 40.7372 24.0051 39.55 24.0051H35.4036V17.2913H41.708Z" fill="#F3B892"/>
<path d="M34.3626 24.0051H39.9886C40.8133 24.0226 41.4799 24.6952 41.4799 25.5256V26.5608V28.2919V29.83V33.3038H34.3626V32.3622L33 31.9236V25.3327C33.0058 24.5782 33.6141 24.0168 34.3626 24.0051Z" fill="#E1E1E1"/>
<path d="M35.7545 31.9178C35.7545 32.6839 35.1405 33.298 34.3802 33.298C33.6141 33.298 33 32.678 33 31.9178H35.7545Z" fill="#F3B892"/>
<path d="M35.4211 22.3968H37.3569L38.55 24.0285H35.4211V22.3968Z" fill="#E1E1E1"/>
<path d="M38.4973 24.0051H39.6202V30.947H38.4973V24.0051Z" fill="#BC2C22"/>
<path d="M36.8365 15.8702H39.281L38.4623 15.4023C39.0939 14.9345 39.9711 14.8526 40.7021 15.2737C41.4273 15.6947 41.708 16.4316 41.708 17.303H37.7137V18.9464C37.6377 20.1511 36.6201 21.1102 35.3919 21.1102V18.7885V17.2972C35.3978 16.5018 36.0411 15.8702 36.8365 15.8702Z" fill="#FAE8CE"/>
<path d="M36.4388 21.2213C36.4388 20.6482 35.9767 20.1803 35.4036 20.1803C34.8305 20.1803 34.3626 20.6482 34.3626 21.2213C34.3626 21.7945 34.8305 22.2623 35.4036 22.2623C35.9709 22.2682 36.4388 21.8003 36.4388 21.2213Z" fill="#F3B892"/>
</svg>
